<?xml version="1.0" encoding="utf-8"?>
<!-- Generator: Adobe Illustrator 24.0.3, SVG Export Plug-In . SVG Version: 6.00 Build 0)  -->
<svg version="1.1" id="Layer_1" xmlns="http://www.w3.org/2000/svg" xmlns:xlink="http://www.w3.org/1999/xlink" x="0px" y="0px"
	 viewBox="0 0 385.9 297.3" style="enable-background:new 0 0 385.9 297.3;" xml:space="preserve">
<style type="text/css">
	.st0{fill:#E5F6FD;}
	.st1{clip-path:url(#SVGID_2_);fill:#E5F6FD;}
	.st2{clip-path:url(#SVGID_4_);fill:#EDEDED;}
	.st3{clip-path:url(#SVGID_6_);}
	.st4{opacity:0.7;fill:#BFDCEB;enable-background:new    ;}
	.st5{fill:#BFDCEB;}
	.st6{fill:#FFFFFF;}
	.st7{fill:#AAE1F8;}
	.st8{fill:#EDEDED;}
	.st9{opacity:0.84;}
	.st10{fill:#545454;}
	.st11{fill:#313139;}
	.st12{fill:#FFD187;}
	.st13{fill:#FFB43B;}
	.st14{fill:#180E0A;}
	.st15{fill:#DBDADD;}
	.st16{fill:#878787;}
	.st17{fill:#000006;}
	.st18{fill:#FFB67F;}
	.st19{fill:#FF9E00;}
	.st20{clip-path:url(#SVGID_8_);}
	.st21{fill:#00243D;}
	.st22{fill:#0074B0;}
	.st23{fill-rule:evenodd;clip-rule:evenodd;fill:#B4816B;}
	.st24{fill:#B4816B;}
	.st25{fill:#00243F;}
	.st26{fill:#335066;}
	.st27{fill:#CFCFCF;}
	.st28{opacity:0.36;}
	.st29{fill:#F7F7F7;}
	.st30{fill:#D6DCE0;}
	.st31{fill:none;stroke:#A3B0BA;stroke-width:0.3312;stroke-miterlimit:10;}
	.st32{fill:#FF5E4B;}
	.st33{fill:#CBCBCB;}
	.st34{fill:#6B4A3E;}
	.st35{fill:#FFCCB4;}
	.st36{fill:#7A5C52;}
	.st37{fill:#24435A;}
	.st38{fill:none;stroke:#00B8AB;stroke-width:0.4725;stroke-miterlimit:10;}
	.st39{fill:none;stroke:#00B8AB;stroke-width:0.4725;stroke-miterlimit:10.0004;}
	.st40{fill:#00B2D9;}
	.st41{clip-path:url(#SVGID_10_);}
	.st42{fill:#66D1E8;}
	.st43{fill:#E2E2E2;}
	.st44{fill:#CCEDFB;}
	.st45{fill:#4D6679;}
</style>
<title>Artboard 49 copy</title>
<path class="st0" d="M81.6,195.6h239.9c2.6-14.8,4.4-29.7,5.2-44.8H76.5C77.3,165.8,79,180.8,81.6,195.6z"/>
<path class="st0" d="M96.5,240.3h210.2c6.6-11.9,11.5-26.6,14.9-44.8h-240C85,213.7,89.9,228.4,96.5,240.3z"/>
<g>
	<g>
		<g>
			<defs>
				<path id="SVGID_1_" d="M200.8,259c-16.3,0-31.3-0.4-44.9-1.2v-0.2c-14.2-0.8-28.3-2.5-42.3-5l0,0c-18.2-3.4-33-8.3-44.9-14.9
					c-34.2-19-44.9-52.1-44.9-105.5S34.5,45.7,68.7,26.7c11.9-6.6,26.7-11.5,44.9-14.9c14-2.5,28.1-4.2,42.3-5V6.7
					c13.7-0.8,28.6-1.2,44.9-1.2s31.3,0.4,44.9,1.2c15.1,0.8,30.1,2.5,44.9,5.1c18.2,3.4,33,8.3,44.9,14.8l0,0
					c34.3,18.9,44.9,52.1,44.9,105.6s-10.6,86.7-44.9,105.6c-11.9,6.6-26.7,11.4-44.9,14.8c-14.9,2.6-29.9,4.4-44.9,5.1
					C232,258.6,217.1,259,200.8,259z"/>
			</defs>
			<clipPath id="SVGID_2_">
				<use xlink:href="#SVGID_1_"  style="overflow:visible;"/>
			</clipPath>
			<path class="st1" d="M17.9,154.3h374c0-71-0.6-135.8-1.8-195H19.7C18.5,18.6,17.9,83.4,17.9,154.3z"/>
		</g>
	</g>
	<g>
		<g>
			<defs>
				<path id="SVGID_3_" d="M200.8,259c-16.3,0-31.3-0.4-44.9-1.2v-0.2c-14.2-0.8-28.3-2.5-42.3-5l0,0c-18.2-3.4-33-8.3-44.9-14.9
					c-34.2-19-44.9-52.1-44.9-105.5S34.5,45.7,68.7,26.7c11.9-6.6,26.7-11.5,44.9-14.9c14-2.5,28.1-4.2,42.3-5V6.7
					c13.7-0.8,28.6-1.2,44.9-1.2s31.3,0.4,44.9,1.2c15.1,0.8,30.1,2.5,44.9,5.1c18.2,3.4,33,8.3,44.9,14.8l0,0
					c34.3,18.9,44.9,52.1,44.9,105.6s-10.6,86.7-44.9,105.6c-11.9,6.6-26.7,11.4-44.9,14.8c-14.9,2.6-29.9,4.4-44.9,5.1
					C232,258.6,217.1,259,200.8,259z"/>
			</defs>
			<clipPath id="SVGID_4_">
				<use xlink:href="#SVGID_3_"  style="overflow:visible;"/>
			</clipPath>
			<polygon class="st2" points="366.9,288.9 45.8,289.5 20.9,182.7 377.6,182.7 			"/>
		</g>
	</g>
	<g>
		<g>
			<defs>
				<path id="SVGID_5_" d="M200.8,259c-16.3,0-31.3-0.4-44.9-1.2v-0.2c-14.2-0.8-28.3-2.5-42.3-5l0,0c-18.2-3.4-33-8.3-44.9-14.9
					c-34.2-19-44.9-52.1-44.9-105.5S34.5,45.7,68.7,26.7c11.9-6.6,26.7-11.5,44.9-14.9c14-2.5,28.1-4.2,42.3-5V6.7
					c13.7-0.8,28.6-1.2,44.9-1.2s31.3,0.4,44.9,1.2c15.1,0.8,30.1,2.5,44.9,5.1c18.2,3.4,33,8.3,44.9,14.8l0,0
					c34.3,18.9,44.9,52.1,44.9,105.6s-10.6,86.7-44.9,105.6c-11.9,6.6-26.7,11.4-44.9,14.8c-14.9,2.6-29.9,4.4-44.9,5.1
					C232,258.6,217.1,259,200.8,259z"/>
			</defs>
			<clipPath id="SVGID_6_">
				<use xlink:href="#SVGID_5_"  style="overflow:visible;"/>
			</clipPath>
			<g class="st3">
				<path class="st4" d="M153.6,148c1,0,1.3,0,1.3,0v-8.3c0,0,0-0.3-0.2-0.3h-1.6l3.4-4.9c0.2-0.4,0.7-0.6,1.1-0.6h3.3v-2h2v2h4.5
					c0.4,0,0.8,0.2,1,0.6l3.5,4.9h-1.4c0,0-0.3,0-0.3,0.3v4.6l1.7,1.7c0,0,0,3.1,0,3.7c0,0.4,0.2,0.7,0.8,0.7c0.3,0,0.6,0,0.9,0
					v-6.5c0,0,0-0.3-0.2-0.3s-1,0-1.5,0l4.1-4.9c0.3-0.3,0.8-0.5,1.2-0.5h2.2v-2.3h2v2.3h4.6c0.4,0,0.8,0.2,1,0.5l4,5.4h-1
					c-0.2,0-0.3,0.1-0.3,0.3l0,0v5.4c0,0.3,0.2,0.7,0.6,0.7l0,0h11.6c0.3,0,0.6-0.3,0.6-0.7c0-1.2,0-3.9,0-5.5c0-2,2.2-2,2.2-2h1.1
					v-5.9H217V148l2.8-2.1v-12.2h12.4v15.7c0,0.5,0.3,0.8,0.8,0.9h0.1h1.6c0-1.1,0.8-1.9,1.9-1.9h0.1c-0.2-1.3,0.7-2.4,2-2.6h0.1
					h0.5v-4c0-0.8,0.6-1.4,1.4-1.4l0,0h9.4v-3.3c0-0.7,0.1-1.5,0.3-2.2l2.5-0.1h2.8c0.2,0.8,0.3,1.6,0.3,2.5v9.1
					c0.9,0.1,1.6,0.8,1.5,1.7v3.5c1.1,0,27.3,0,27.3,0c3.1,0,3.2,2.5,3.2,2.5L152,154v-4.3C151.9,148.6,152.7,147.9,153.6,148"/>
				<path class="st5" d="M280.8,151.6v-7.4c0-1.2-1.6-3.5-9.8-3.5c-8.2,0-10.1,2.3-10.1,3.5v7.3"/>
				<rect x="267" y="145.3" class="st5" width="5.5" height="6.1"/>
				<rect x="266.1" y="149.7" class="st5" width="1.7" height="1.7"/>
				<rect x="268.2" y="149.7" class="st5" width="1.7" height="1.7"/>
				<rect x="197.9" y="144.2" class="st5" width="1.3" height="6.2"/>
				<path class="st5" d="M197.8,141.6h1.5c0.9,0,1.6,0.7,1.6,1.6l0,0v1.9c0,0.9-0.7,1.6-1.6,1.6l0,0h-1.5c-0.9,0-1.6-0.7-1.6-1.6
					v-1.9C196.2,142.3,196.9,141.6,197.8,141.6z"/>
				<rect x="192.6" y="144.8" class="st5" width="1.1" height="5.5"/>
				<path class="st5" d="M192.5,142.5h1.4c0.8,0,1.4,0.6,1.4,1.4v1.7c0,0.8-0.6,1.4-1.4,1.4h-1.4c-0.8,0-1.4-0.6-1.4-1.4v-1.7
					C191.1,143.2,191.7,142.5,192.5,142.5L192.5,142.5z"/>
				<path class="st6" d="M338.2,63.9c5.6,0,7,1.6,7,5.7h-45.4c0-3.1,1.1-4.4,5.4-4.4h11.2c0-2.2,0.8-3.1,3.8-3.1h2.3
					c0-4,1.4-5.6,6.8-5.6C336.4,56.6,338.2,58.7,338.2,63.9z"/>
				<path class="st6" d="M293,52.7h-7.1c0-3.2,1.1-4.5,5.5-4.5l0,0c0-2.7,0.9-3.8,4.6-3.8c4.7,0,5.9,1.4,5.9,4.8h3
					c3.3,0,4.2,1,4.2,3.4h-19"/>
				<rect x="24.9" y="153.9" class="st7" width="218" height="28.9"/>
				<rect x="228.6" y="125.9" class="st8" width="173.3" height="57.8"/>
				<g class="st9">
					<polygon class="st10" points="196.7,240.5 236,240.5 236,238.7 233.5,237.4 196.7,237.3 					"/>
					<polygon class="st10" points="190.5,235.7 196.7,235.7 196.7,222.1 190.5,226.5 					"/>
					<rect x="195.4" y="193.5" class="st10" width="3.1" height="24.2"/>
					<polygon class="st10" points="195.4,225.8 199.1,225.8 199.1,216 198.4,213 195.4,213 					"/>
					<rect x="195.1" y="225.8" class="st10" width="4.4" height="15.1"/>
					<polygon class="st10" points="182.7,217.7 183.4,214.7 177.5,207.6 175.7,209.3 					"/>
					<rect x="185.1" y="220.2" class="st10" width="6.3" height="13"/>
					<polygon class="st10" points="185.6,223.5 189,220.9 182.2,210.1 176.9,214.6 					"/>
					<rect x="130.1" y="241.3" class="st11" width="61.1" height="4.3"/>
					<path class="st10" d="M135.3,227.1c0,2,1.6,3.7,3.7,3.7l0,0h30.6c2,0,3.7-1.7,3.7-3.7l0,0c0-2-1.7-3.7-3.7-3.7H139
						C137,223.4,135.3,225.1,135.3,227.1L135.3,227.1L135.3,227.1z"/>
					<path class="st10" d="M137.3,225.3c0,0.7,0.5,1.2,1.2,1.2l0,0H170c0.7,0,1.2-0.5,1.2-1.2l0,0l0,0c0-0.7-0.5-1.2-1.2-1.2l0,0
						h-31.5C137.8,224.1,137.3,224.6,137.3,225.3L137.3,225.3L137.3,225.3z"/>
					<rect x="146.9" y="230.8" class="st10" width="43" height="6.7"/>
					<polygon class="st12" points="127.9,243 153.1,243 147.1,225.8 133.7,225.8 					"/>
					<rect x="130" y="236.9" class="st13" width="61.2" height="7"/>
					<path class="st13" d="M131.9,231.1h10.2l4.5,12.8h-17.8c-0.3,0-0.5,0-0.7-0.2s-0.3-0.5-0.2-0.8v-5.2c0-0.2,0-0.4,0.2-0.6
						c0.1-0.2,0.4-0.3,0.6-0.2h1.3L131.9,231.1z"/>
					<path class="st12" d="M142.4,235.5c4.8,0,8.7,3.9,8.7,8.7h-17.4C133.8,239.5,137.6,235.6,142.4,235.5L142.4,235.5z"/>
					<path class="st14" d="M135,244.8c0,4.1,3.4,7.5,7.5,7.5s7.5-3.4,7.5-7.5s-3.4-7.5-7.5-7.5l0,0
						C138.3,237.3,134.9,240.7,135,244.8z"/>
					<path class="st15" d="M138.6,244.8c0,2.1,1.7,3.8,3.8,3.8s3.8-1.7,3.8-3.8s-1.7-3.8-3.8-3.8S138.6,242.7,138.6,244.8z"/>
					<path class="st12" d="M192.3,242.8h-10.4c0-5.7,4.6-10.3,10.3-10.3l0,0h0.1L192.3,242.8L192.3,242.8z"/>
					<path class="st14" d="M183.3,243.4c0,4.9,4,8.9,8.9,8.9s8.9-4,8.9-8.9s-4-8.9-8.9-8.9l0,0C187.3,234.6,183.3,238.5,183.3,243.4
						z"/>
					<path class="st15" d="M187.7,243.4c0,2.5,2,4.5,4.5,4.5s4.5-2,4.5-4.5s-2-4.5-4.5-4.5l0,0C189.7,238.9,187.7,240.9,187.7,243.4
						z"/>
					<path class="st16" d="M150.7,201c1.6,0.1,2.8,1.4,2.7,2.9s-1.2,2.6-2.7,2.7h-0.1l3,4.4l1.2,9.1h10.9c0.9,0,1.7,0.8,1.6,1.8
						c0,0.9-0.7,1.6-1.6,1.6h-14.3c-0.9,0-1.6-0.8-1.6-1.7c0,0,0,0,0-0.1l-0.2,0.1l-1.7-15.2l0,0V201H150.7z"/>
					<path class="st10" d="M195.6,192.7h4.4c0.3,0,0.6,0.3,0.6,0.6v0.5c0,0.3-0.3,0.6-0.6,0.6h-4.4c-0.3,0-0.6-0.3-0.6-0.6v-0.5
						C195.1,193,195.3,192.7,195.6,192.7z"/>
					<polygon class="st17" points="195.4,196 198.4,195.2 198.4,194.3 195.4,194.3 					"/>
					
						<rect x="201.3" y="222.7" transform="matrix(5.768183e-03 -1 1 5.768183e-03 -22.601 437.1714)" class="st18" width="14.5" height="14.5"/>
					
						<rect x="216.3" y="222.6" transform="matrix(5.768183e-03 -1 1 5.768183e-03 -7.5898 452.0937)" class="st18" width="14.5" height="14.5"/>
					
						<rect x="201.2" y="207.6" transform="matrix(5.768183e-03 -1 1 5.768183e-03 -7.5633 422.0949)" class="st18" width="14.5" height="14.5"/>
					
						<rect x="216.2" y="207.5" transform="matrix(5.768183e-03 -1 1 5.768183e-03 7.4478 437.0168)" class="st18" width="14.5" height="14.5"/>
					<rect x="196" y="220.3" class="st19" width="2.1" height="5.6"/>
					<g>
						<g>
							<g>
								<defs>
									<rect id="SVGID_7_" x="196" y="220.3" width="2.1" height="5.6"/>
								</defs>
								<clipPath id="SVGID_8_">
									<use xlink:href="#SVGID_7_"  style="overflow:visible;"/>
								</clipPath>
								<g class="st20">
									<rect x="195.4" y="224.4" transform="matrix(0.8797 -0.4756 0.4756 0.8797 -83.1652 120.9157)" width="3.9" height="0.8"/>
									<rect x="195.4" y="220.8" transform="matrix(0.8797 -0.4756 0.4756 0.8797 -81.4808 120.3838)" width="3.5" height="0.8"/>
									<rect x="195.3" y="222.7" transform="matrix(0.8797 -0.4756 0.4756 0.8797 -82.3848 120.5945)" width="3.6" height="0.8"/>
								</g>
							</g>
						</g>
					</g>
					<path class="st10" d="M152.9,188c0.3-0.3,0.7-0.4,1.1-0.4l23.6,0.1c0.3,0,0.6,0.1,0.8,0.3s0.3,0.5,0.3,0.8l12.9,33v9.6h-1.9
						v-9.5l-12.7-32h-22.8l-6.9,13.5l0.2,21.2h-2l-0.1-21c0-0.2,0-0.4,0-0.7c0-0.2,0.1-0.4,0.3-0.6l6.6-13.4
						C152.4,188.5,152.6,188.2,152.9,188z"/>
					<path class="st10" d="M176.4,187.7l0.5,2.3l2.2-0.1c-0.1-1.1-0.3-2.1-1.6-2.2H176.4z"/>
					<path class="st16" d="M177.6,189L177.6,189c-0.2,0-0.3-0.1-0.3-0.3l0,0c0-0.2,0.1-0.3,0.3-0.3l0,0c0.2,0,0.3,0.1,0.3,0.3l0,0
						C177.9,188.9,177.8,189,177.6,189z"/>
					<path class="st10" d="M154.7,187.6l-0.5,2.3l-2.2-0.1c0.1-1.1,0.3-2.1,1.6-2.2H154.7z"/>
					<path class="st16" d="M153.6,188.3L153.6,188.3c0.2,0,0.3,0.1,0.3,0.3l0,0c0,0.2-0.1,0.3-0.3,0.3l0,0c-0.2,0-0.3-0.1-0.3-0.3
						l0,0C153.2,188.4,153.4,188.3,153.6,188.3z"/>
					<polygon class="st10" points="180.3,198 180.6,198.8 178.9,199.5 181,204.7 182.7,204 183,204.8 180,206 177.3,199.2 					"/>
					<path d="M170.4,231.6l-0.3,1.5c0,0.2,0.1,0.4,0.3,0.5l0,0l6.9,1.2l0.1-0.4c0.1-0.3-0.1-0.7-0.4-0.8l-4.1-2.4L170.4,231.6z"/>
					<path class="st21" d="M174.1,217.7l0.5,0.3c0.9,0.5,1.4,1.5,1.2,2.5l-1.5,11.5H170l1-9.9l-3.5-1.5L174.1,217.7z"/>
					<path d="M179.1,232.1l0.9,1.2c0.1,0.2,0.4,0.2,0.6,0.1l0,0l5.7-4.1L186,229c-0.2-0.3-0.5-0.4-0.9-0.3l-4.6,1.3L179.1,232.1z"/>
					<path class="st22" d="M158,216.9l1.4,4.7h12l6,11h1.4l1.7-2.6l-5.4-11.7c-0.4-0.8-1.2-1.3-2.1-1.3L158,216.9z"/>
					<path class="st23" d="M173.1,212.6c-0.1,0.1-0.1,0.2-0.1,0.3s0.1,0.2,0.1,0.3c0.1,0.2,0.2,0.3,0.4,0.3c-0.1,0-0.2,0-0.4,0
						c-0.7,0.1-1.4,0.2-2.1,0.5l0.4-2l2.2-0.5l0,0l0,0C173.5,211.9,173.2,212.3,173.1,212.6z"/>
					<path class="st24" d="M177.5,212.1c-0.1,0.2-0.3,0.4-0.5,0.5c-0.7,0.5-1.6,0.8-2.5,0.8l0,0h-0.1c-0.2,0-0.3,0-0.5,0
						c-0.1,0-0.2,0-0.3,0l0,0c-0.2,0-0.3-0.1-0.4-0.3c0-0.1-0.1-0.2-0.1-0.3s0-0.2,0.1-0.3c0.1-0.2,0.4-0.6,0.7-1.1l0,0l0,0
						c0.1-0.1,0.1-0.2,0.2-0.3l0,0c0-0.1,0.1-0.1,0.1-0.2l0,0c0.3-0.4,0.5-0.8,0.6-0.8c0.1-0.1,0.2-0.2,0.3-0.1
						c0.1,0,0.1,0.1,0.1,0.2l0,0c0,0.1,0,0.8,0,0.8c0,0.1,0.1,0.2,0.2,0.2c0.1,0,0.3,0,0.6,0.1c0.3,0,0.5,0.1,0.8,0.1l0,0
						c0.2,0,0.4,0.1,0.6,0.1l0,0C177.6,211.6,177.7,211.8,177.5,212.1C177.6,212,177.5,212.1,177.5,212.1z"/>
					<path class="st25" d="M170.2,211.5l2-0.2l0.3,2.7c0,0.2-0.1,0.4-0.3,0.4l0,0l-1.7,0.2"/>
					<polyline class="st25" points="165.1,212 170.3,211.5 170.7,214.5 165.4,215.1 					"/>
					<path class="st24" d="M166.6,200.2c0,0.3,0.1,0.5,0.1,0.8c0,0.1,0,0.2,0,0.3c-0.1,1.2-1,1.3-2.1,1.5l-0.4,1.7l-0.1,0.4l0,0H164
						l-3.1-2.5v-0.3l0,0l0.2-1.1v-0.2l-0.1-1.5l0.8-1.7l2.3-1.7c0,0,0-0.5,0.9-0.1c0.2,0.1,0.4,0.2,0.5,0.4c0.4,0.6,0.7,1.2,0.8,1.9
						l0.9,1.7L166.6,200.2z"/>
					<path d="M165.7,198.7h-0.2c-0.1,0-0.1,0-0.1-0.1l0,0v-0.2c0-0.1,0-0.1,0.1-0.1h0.2c0.1,0,0.1,0,0.1,0.1v0.2
						C165.8,198.6,165.7,198.7,165.7,198.7L165.7,198.7L165.7,198.7z"/>
					<polygon class="st24" points="160.9,202.1 164.1,204.5 164.7,205.4 160.6,202.7 					"/>
					<path class="st19" d="M165.1,218.9l0.8-4.5l-0.1-6c0-0.8-0.2-1.5-0.6-2.2l-0.4-0.7l-4.1-2.7l-2.2,2.8c-0.4,0.5-0.7,1.2-0.7,1.9
						v14.1L165.1,218.9z"/>
					<path d="M159.9,197.4c-0.1-0.3,0-0.7,0.4-0.9h0.1c0-0.3,0.4-0.7,1.1-0.7c0.4-0.3,0.9-0.5,1.4-0.4c0.4-0.3,1-0.4,1.4-0.1
						c0.4-0.2,0.9,0,1.1,0.5c0,0.1,0.1,0.3,0.1,0.4c0,0-0.1,0-0.2,0c-0.7,0.2-0.1,1.2-1.6,1.5l0.3,2c0.1,0.4,0.5,0.8,0.9,0.7l0,0
						c0.7-0.1,1.6-0.3,1.6-0.3s0.2,0.5-0.1,0.7c0.2,0.2,0.3,0.3,0.3,0.9c0.1,0.6-0.3,0.7-1.6,0.9c-1.5,0.2-1.7-0.1-1.9-1.4
						c-0.1-0.4-0.3-1.8-0.4-2.3c-0.1-0.3-0.2-0.7-0.8-0.5c-0.5,0.1-0.6,0.3-0.5,0.7l0.1,0.6l-1.3,0.4c-0.3-0.1-0.4-0.4-0.3-0.7
						c0,0,0-0.1,0.1-0.1c-0.3-0.2-0.5-0.7-0.3-1l0,0C159.6,198.2,159.6,197.7,159.9,197.4L159.9,197.4z"/>
					<path class="st6" d="M166.6,201.2l-0.7,0.1c0,0,0-0.4,0.6-0.5L166.6,201.2z"/>
					<polygon class="st26" points="159.3,198.1 159,198.5 159,198.5 159.3,198.3 					"/>
					<path class="st27" d="M159.2,199.2l-0.2-0.7l1.1-0.5c0.1,0,0.1-0.1,0.2-0.2l0.5-1.2l0.7,0.3l-0.5,1.2c-0.1,0.3-0.3,0.5-0.6,0.6
						L159.2,199.2z"/>
					<path class="st6" d="M167,195.5l-8.3,2.8l0.1-0.5c-0.6-2.1-0.2-3.3,1.3-4.2c0.2-0.1,0.5-0.3,0.8-0.3l0.7-0.2
						c0.3-0.1,0.7-0.2,1-0.2c1.3-0.1,2.6,0.7,3,1.9c0.3,0.1,0.9,0.3,1.3,0.5C167.1,195.3,167.1,195.4,167,195.5
						C167.1,195.5,167,195.5,167,195.5z"/>
					<path class="st27" d="M165.7,194.7l-1.3,1.3l0,0l1.7-1.1C166.1,194.9,166,194.9,165.7,194.7z"/>
					<polygon class="st27" points="161.2,197.5 163.8,196.6 162.7,195 161.1,195.6 					"/>
					<polygon class="st16" points="161.1,195.6 160.6,197.7 161.2,197.5 					"/>
					<path class="st10" d="M174.7,213.5c0.2,0.2,0.6,0.3,0.9,0l4.6-4.2c0.2-0.2,0.3-0.6,0.1-0.8l0,0l0,0c-0.2-0.2-0.6-0.3-0.9,0
						l-4.6,4.2C174.5,212.9,174.4,213.3,174.7,213.5C174.6,213.5,174.7,213.5,174.7,213.5L174.7,213.5z"/>
					<path class="st22" d="M175.9,202.5l0.7,1.9l-6,5.1c-0.3,0.2-0.6,0.2-0.9,0.2l-7.5-0.6h-0.4c-1.1,0-1.9-0.9-1.9-2V207v-0.1
						c0.2-0.8,0.9-1.4,1.7-1.4c0.3,0,0.6,0,0.9,0l7.1,0.8L175.9,202.5z"/>
					<polygon class="st6" points="165.9,212.6 157.8,212.7 157.8,211.3 165.8,211.3 					"/>
					<polygon class="st6" points="165.8,214.9 157.8,215 157.8,213.6 165.9,213.6 165.9,214.4 					"/>
					<path class="st24" d="M175.8,202.4l1.6-1.1h2.2c0.2,0,0.4,0.1,0.4,0.3l0.3,0.8c0.1,0.2,0,0.4-0.1,0.5l-1.6,1.3l-2.1,0.1"/>
				</g>
				<g class="st28">
					<rect x="229.1" y="157.8" class="st8" width="36.9" height="20.6"/>
					<rect x="229.1" y="178.9" class="st16" width="36.7" height="6.7"/>
					<path class="st10" d="M240.1,179.6h15.1c0.6,0,1,0.5,1,1l0,0c0,0.6-0.5,1-1,1h-15.1c-0.6,0-1-0.5-1-1l0,0
						C239.1,180.1,239.6,179.6,240.1,179.6z"/>
					<path class="st10" d="M240.6,182.5h14.3c0.8,0,1.4,0.6,1.4,1.4l0,0c0,0.8-0.6,1.4-1.4,1.4h-14.3c-0.8,0-1.4-0.6-1.4-1.4l0,0
						C239.1,183.2,239.8,182.5,240.6,182.5z"/>
					<path class="st10" d="M238.9,159h17.6c2.2,0,4,1.8,4,4v11.4c0,2.2-1.8,4-4,4h-17.6c-2.2,0-4-1.8-4-4V163
						C234.9,160.8,236.7,159,238.9,159z"/>
					<rect x="229.2" y="132.7" class="st29" width="36.9" height="24.9"/>
					<rect x="229.2" y="129.2" class="st27" width="36.9" height="3.1"/>
					<rect x="229.2" y="138.3" class="st7" width="36.9" height="3.1"/>
					<path class="st30" d="M238.9,178.5v-14.8c0-1.9,0.9-2.3,2.1-2.3h13.4c1.2,0,2.1,0.9,2.1,2.1c0,0.1,0,0.1,0,0.2v14.8H238.9z"/>
					<line class="st31" x1="238.9" y1="164.2" x2="256.5" y2="164.2"/>
					<line class="st31" x1="238.9" y1="167" x2="256.5" y2="167"/>
					<line class="st31" x1="238.9" y1="169.7" x2="256.5" y2="169.7"/>
					<line class="st31" x1="238.9" y1="172.5" x2="256.5" y2="172.5"/>
					<line class="st31" x1="238.9" y1="175.3" x2="256.5" y2="175.3"/>
					<path class="st27" d="M246,153h3.4c1,0,1.8,0.8,1.8,1.8l0,0c0,1-0.8,1.8-1.8,1.8H246c-1,0-1.8-0.8-1.8-1.8l0,0
						C244.2,153.7,245,153,246,153z"/>
					<rect x="266.4" y="157.8" class="st8" width="36.9" height="20.6"/>
					<rect x="266.3" y="178.9" class="st16" width="36.7" height="6.7"/>
					<path class="st10" d="M277.4,179.6h15.1c0.6,0,1,0.5,1,1l0,0c0,0.6-0.5,1-1,1h-15.1c-0.6,0-1-0.5-1-1l0,0
						C276.3,180.1,276.8,179.6,277.4,179.6z"/>
					<path class="st10" d="M277.8,182.5h14.3c0.8,0,1.4,0.6,1.4,1.4l0,0c0,0.8-0.6,1.4-1.4,1.4h-14.3c-0.8,0-1.4-0.6-1.4-1.4l0,0
						C276.3,183.2,277,182.5,277.8,182.5z"/>
					<path class="st10" d="M276.1,159h17.6c2.2,0,4,1.8,4,4v11.4c0,2.2-1.8,4-4,4h-17.6c-2.2,0-4-1.8-4-4V163
						C272.1,160.8,273.9,159,276.1,159z"/>
					<rect x="266.4" y="132.7" class="st29" width="36.9" height="24.9"/>
					<rect x="266.5" y="129.2" class="st27" width="36.9" height="3.1"/>
					<rect x="266.4" y="138.3" class="st7" width="36.9" height="3.1"/>
					<path class="st30" d="M276.1,178.5v-14.8c0-1.9,0.9-2.3,2.1-2.3h13.4c1.2,0,2.1,0.9,2.1,2.1c0,0.1,0,0.1,0,0.2v14.8H276.1z"/>
					<line class="st31" x1="276.1" y1="164.2" x2="293.8" y2="164.2"/>
					<line class="st31" x1="276.1" y1="167" x2="293.8" y2="167"/>
					<line class="st31" x1="276.1" y1="169.7" x2="293.8" y2="169.7"/>
					<line class="st31" x1="276.1" y1="172.5" x2="293.8" y2="172.5"/>
					<line class="st31" x1="276.1" y1="175.3" x2="293.8" y2="175.3"/>
					<path class="st27" d="M283.2,153h3.4c1,0,1.8,0.8,1.8,1.8l0,0c0,1-0.8,1.8-1.8,1.8h-3.4c-1,0-1.8-0.8-1.8-1.8l0,0
						C281.5,153.7,282.3,153,283.2,153z"/>
					<rect x="303.6" y="157.8" class="st8" width="36.9" height="20.6"/>
					<rect x="303.5" y="178.9" class="st16" width="36.7" height="6.7"/>
					<path class="st10" d="M314.6,179.6h15.1c0.6,0,1,0.5,1,1l0,0c0,0.6-0.5,1-1,1h-15.1c-0.6,0-1-0.5-1-1l0,0
						C313.5,180.1,314,179.6,314.6,179.6z"/>
					<path class="st10" d="M315,182.5h14.3c0.8,0,1.4,0.6,1.4,1.4l0,0c0,0.8-0.6,1.4-1.4,1.4H315c-0.8,0-1.4-0.6-1.4-1.4l0,0
						C313.5,183.2,314.2,182.5,315,182.5z"/>
					<path class="st10" d="M313.3,159h17.6c2.2,0,4,1.8,4,4v11.4c0,2.2-1.8,4-4,4h-17.6c-2.2,0-4-1.8-4-4V163
						C309.3,160.8,311.1,159,313.3,159z"/>
					<rect x="303.7" y="132.7" class="st29" width="36.9" height="24.9"/>
					<rect x="303.7" y="129.2" class="st27" width="36.9" height="3.1"/>
					<rect x="303.6" y="138.3" class="st7" width="36.9" height="3.1"/>
					<path class="st30" d="M313.3,178.5v-14.8c0-1.9,0.9-2.3,2.1-2.3h13.4c1.2,0,2.1,0.9,2.1,2.1c0,0.1,0,0.1,0,0.2v14.8H313.3z"/>
					<line class="st31" x1="313.4" y1="164.2" x2="331" y2="164.2"/>
					<line class="st31" x1="313.4" y1="167" x2="331" y2="167"/>
					<line class="st31" x1="313.4" y1="169.7" x2="331" y2="169.7"/>
					<line class="st31" x1="313.4" y1="172.5" x2="331" y2="172.5"/>
					<line class="st31" x1="313.4" y1="175.3" x2="331" y2="175.3"/>
					<path class="st27" d="M320.5,153h3.4c1,0,1.8,0.8,1.8,1.8l0,0c0,1-0.8,1.8-1.8,1.8h-3.4c-1,0-1.8-0.8-1.8-1.8l0,0
						C318.7,153.7,319.5,153,320.5,153z"/>
					<rect x="340.8" y="157.8" class="st8" width="36.9" height="20.6"/>
					<rect x="340.7" y="178.9" class="st16" width="36.7" height="6.7"/>
					<path class="st10" d="M351.8,179.6h15.1c0.6,0,1,0.5,1,1l0,0c0,0.6-0.5,1-1,1h-15.1c-0.6,0-1-0.5-1-1l0,0
						C350.8,180.1,351.2,179.6,351.8,179.6z"/>
					<path class="st10" d="M352.2,182.5h14.3c0.8,0,1.4,0.6,1.4,1.4l0,0c0,0.8-0.6,1.4-1.4,1.4h-14.3c-0.8,0-1.4-0.6-1.4-1.4l0,0
						C350.8,183.2,351.4,182.5,352.2,182.5z"/>
					<path class="st10" d="M350.6,159h17.6c2.2,0,4,1.8,4,4v11.4c0,2.2-1.8,4-4,4h-17.6c-2.2,0-4-1.8-4-4V163
						C346.6,160.8,348.3,159,350.6,159z"/>
					<rect x="340.9" y="132.7" class="st29" width="36.9" height="24.9"/>
					<rect x="340.9" y="129.2" class="st27" width="36.9" height="3.1"/>
					<rect x="340.8" y="138.3" class="st7" width="36.9" height="3.1"/>
					<path class="st30" d="M350.6,178.5v-14.8c0-1.9,0.9-2.3,2.1-2.3h13.4c1.2,0,2.1,0.9,2.1,2.1c0,0.1,0,0.1,0,0.2v14.8H350.6z"/>
					<line class="st31" x1="350.6" y1="164.2" x2="368.2" y2="164.2"/>
					<line class="st31" x1="350.6" y1="167" x2="368.2" y2="167"/>
					<line class="st31" x1="350.6" y1="169.7" x2="368.2" y2="169.7"/>
					<line class="st31" x1="350.6" y1="172.5" x2="368.2" y2="172.5"/>
					<line class="st31" x1="350.6" y1="175.3" x2="368.2" y2="175.3"/>
					<path class="st27" d="M357.7,153h3.4c1,0,1.8,0.8,1.8,1.8l0,0c0,1-0.8,1.8-1.8,1.8h-3.4c-1,0-1.8-0.8-1.8-1.8l0,0
						C355.9,153.7,356.7,153,357.7,153z"/>
				</g>
			</g>
		</g>
	</g>
</g>
<path class="st6" d="M127.1,48.8c5.6,0,7,1.6,7,5.7H88.9c0-3.1,1.1-4.4,5.4-4.4h11.1c0-2.2,0.8-3.1,3.8-3.1h2.3
	c0-3.9,1.4-5.5,6.8-5.5C125.4,41.5,127.1,43.6,127.1,48.8z"/>
<g>
	<path class="st32" d="M14.7,213.1v-18.5c0-2.7,2.2-5,5-5l0,0h92.8c2.7,0,5,2.2,5,5l0,0v18.5"/>
	<g>
		<path class="st33" d="M121.2,266.4L121.2,266.4c-1.1,0-2-0.6-2.4-1.6L103.2,225c-0.1-0.2-0.2-0.3-0.4-0.3H29.1
			c-0.2,0-0.4,0.1-0.4,0.3l-15.6,39.7c-0.4,1-1.3,1.6-2.4,1.6l0,0c-1.6,0-2.8-1.4-2.6-2.9l6.6-51.8c0.3-2.2,2.1-3.8,4.3-3.8h94
			c2.1,0,3.9,1.6,4.2,3.7l6.6,52C124,265,122.8,266.4,121.2,266.4z"/>
	</g>
	<path class="st10" d="M88.1,191.4l-41.8,6.8c-7.2,0-13.1-5.9-13.1-13.1c0-0.6,0-1.2,0.1-1.8l3.2-22.7h63.7L88.1,191.4z"/>
	<path class="st10" d="M90.8,198.1H80.5l19.8-37.6l2.3,24.6c0.6,6.5-4.2,12.3-10.7,12.9C91.5,198.1,91.1,198.1,90.8,198.1z"/>
	<path class="st25" d="M78.2,77.7l20,10c5.4,2.7,9.2,7.7,10.4,13.6l8.4,42.8c0.5,2.8-0.3,5.7-2.3,7.7l-13.4,13.8l-5.6-5.3l-51.6,1.4
		l-0.5,2.6L23,160.4c-3.8-0.7-6.3-4.4-5.7-8.2l8-51c0.8-5.3,4.2-9.8,8.9-12.1l23.5-11.5"/>
	<path class="st25" d="M42.8,254.6H23.5c-1.8,0-3.2-1.4-3.2-3.2c0-0.5,0.1-1,0.3-1.4l9.8-19.7l16.1,6.8L42.8,254.6z"/>
	<polygon class="st24" points="50.2,220.3 44.7,245.4 22.9,245.4 37.5,215.8 	"/>
	<path class="st25" d="M87.9,290l18.3,0.1c2.1,0,3.8-1.7,3.8-3.8c0-0.6-0.1-1.2-0.4-1.8l-9.5-18.7l-16,6.7L87.9,290z"/>
	<polygon class="st10" points="74.1,258.6 92.5,250.9 62.7,167.4 35.1,178.9 	"/>
	<polyline class="st10" points="77,207.3 57.5,224.7 59.7,229.1 81.1,218.9 	"/>
	<path class="st34" d="M92.5,250.9l-12,5l5,23.1c3.3,0.9,6.7,1.3,10.2,1.2c5.2-0.4,9.2-4.9,9.2-4.9L92.5,250.9z"/>
	<path class="st25" d="M44.7,245.4c0,0-13.6,0.3-18.2-7.3l-4.5,9L44.7,245.4z"/>
	<path class="st35" d="M46.5,149.9l13.7,2c0.8,0.1,1.6,0.5,2.3,1l5.8,4.5c1.2,0.9,1.4,2.7,0.5,3.9c0,0,0,0,0,0.1l-4.4,5.4
		c-1.1,1.3-2.9,1.9-4.5,1.3L44,162.4L46.5,149.9z"/>
	<path class="st8" d="M40.2,125h53c2.4,0,4.4,2,4.4,4.4V166c0,2.4-2,4.4-4.4,4.4h-53c-2.4,0-4.4-2-4.4-4.4v-36.6
		C35.8,127,37.8,125,40.2,125z"/>
	<path class="st16" d="M51.7,229.9l-14.1-14.1l51.8-58.1c3.8-4.2,10.3-4.6,14.5-0.8c0.1,0.1,0.3,0.2,0.4,0.4l5.7,5.6
		c4.1,4.1,4.1,10.7,0,14.8c-0.1,0.1-0.3,0.3-0.5,0.4L51.7,229.9z"/>
	<path class="st24" d="M82.6,37.8c0,0,0.1,24.7,0.1,25.9c0,4.5-4.4,8.7-4.4,8.7v5.5L68,101.1L57.8,77.5v-5.7c0,0-4.6-3.6-4.6-9
		l-0.1-25.9L82.6,37.8z"/>
	<path class="st25" d="M58.2,54.7c0-1,0.8-1.7,1.7-1.7h2.5c1,0,1.7,0.8,1.7,1.7"/>
	<path class="st25" d="M71.9,54.7c0-1,0.8-1.7,1.7-1.7h2.5c1,0,1.7,0.8,1.7,1.7"/>
	<path class="st36" d="M78.2,72.4v5.5l-4.3,9.8c-11.5-0.7-16.1-16-16.1-16C64.4,77.6,69.8,79.9,78.2,72.4"/>
	<path class="st6" d="M72.1,67.4h-8.4C63.7,69.3,72.1,69.4,72.1,67.4"/>
	<path class="st22" d="M53.3,53.3c0,0-8.9-14.1-3.3-26.1l1.5-4c0,0,1.3-4.1,5.3-4.5l8.5-2.6c3.2-1.7,7.1-1,9.5,1.6l4.5,1.9l4.9,2.7
		c0,0,2.8,1.4,3.9,6.4c0,0,0.5,14.3-6,27.4c0,0,9.5-11.2-13.1-17.2C68.9,39,54.2,33.3,53.3,53.3z"/>
	<path class="st37" d="M51.2,48.6c0,0,0.8-14.2,15-20c0,0,11.7-2.6,20.1,15c0,0-8.5-7.8-20.2-7c0,0,8.5-2.5,15.7,1.8
		c0,0-9.6-10.7-20.9-5.5C60.9,33,53.2,39.2,51.2,48.6z"/>
	<path class="st37" d="M48.5,39.3c0,0,2.8-8,6.3-9.1l-6.4,2.2L48.5,39.3z"/>
	<polygon class="st37" points="49.6,28.2 60.6,25 51.1,25.2 	"/>
	<path class="st37" d="M79.3,19.6c0,0,9.9,5.1,7.1,23.4c0,0,5.7-10.9-0.9-19.6L79.3,19.6z"/>
	<path class="st37" d="M75,40.8c4.8,3.5,7.4,9.2,7,15C82,55.8,90.6,44.4,75,40.8z"/>
	
		<ellipse transform="matrix(0.1525 -0.9883 0.9883 0.1525 -13.7637 101.5854)" class="st38" cx="52.3" cy="58.8" rx="4.7" ry="1.5"/>
	<ellipse transform="matrix(0.9857 -0.1686 0.1686 0.9857 -8.984 14.9932)" class="st39" cx="83.8" cy="60.4" rx="1.5" ry="4.7"/>
</g>
<g>
	<path class="st40" d="M339.5,44.6c-0.6-2.1-2.3-3.7-4.4-4.3l0,0l-16.2-4.1c-2.6-0.6-5.4-0.4-7.9,0.5L197.4,69.3l-28.9-14.6l-13.9,4
		L182,90.9c3.7,4.5,9.9,6.4,15.6,4.8l122.9-35.3c7.8-2.2,13.6-5.7,17.4-9.5c0.3-0.3,0.4-0.5,0.7-0.7l0,0l0,0
		C339.6,48.6,340,46.5,339.5,44.6z"/>
	<path class="st27" d="M260,82.3l2,7.1c-3.7,1.2-7.4,1.6-11.3,1.5l-1.2-4.2C252.9,84.9,256.4,83.3,260,82.3z"/>
	<path class="st40" d="M260.9,91.1l11.8-3.4c2.1-0.6,3.1-1.9,2.6-3.7l-1.2-4c-0.6-1.9-1.9-2.4-4.2-1.8l-11.8,3.4L260.9,91.1z"/>
	<path class="st6" d="M297.3,50.7c0.4,0.8,1.2,1.2,2.2,0.9l1.3-0.4c0.8-0.2,1.4-1.1,1.4-2l-0.6-2.3c-0.4-0.8-1.2-1.2-2.2-0.9
		l-1.3,0.4c-0.8,0.2-1.4,1.1-1.4,2L297.3,50.7z"/>
	<path class="st6" d="M306.6,52.6c0.5,1.1,1.7,1.8,3,1.2l1.8-0.5c1.2-0.2,2-1.5,1.9-2.6l-1.9-6.8c-0.5-1.1-1.7-1.8-3-1.2l-1.8,0.5
		c-1.2,0.2-2,1.5-1.9,2.6L306.6,52.6z"/>
	<path class="st6" d="M321.2,36.9l-4.4,1.3c-1.1,0.5-1.8,1.7-1.2,3l0.5,1.8c0.2,1.2,1.5,2,2.6,1.9l15.5-4.5"/>
	<path class="st6" d="M210.6,80.2c0.5,1.1,1.7,1.8,3,1.2l1.8-0.5c1.2-0.2,2-1.5,1.9-2.6l-1.9-6.8c-0.5-1.1-1.7-1.8-3-1.2l-1.8,0.5
		c-1.2,0.2-2,1.5-1.9,2.6L210.6,80.2z"/>
	<path class="st6" d="M289.6,53c0.4,0.8,1.2,1.2,2.2,0.9l1.3-0.4c0.8-0.2,1.4-1.1,1.4-2l-0.6-2.3c-0.4-0.8-1.2-1.2-2.2-0.9l-1.3,0.4
		c-0.8,0.2-1.4,1.1-1.4,2L289.6,53z"/>
	<path class="st6" d="M281.6,55.2c0.4,0.8,1.2,1.2,2.2,0.9l1.3-0.4c0.8-0.2,1.4-1.1,1.4-2l-0.6-2.3c-0.4-0.8-1.2-1.2-2.2-0.9
		l-1.3,0.4c-0.8,0.2-1.4,1.1-1.4,2L281.6,55.2z"/>
	<path class="st6" d="M273.9,57.5c0.4,0.8,1.2,1.2,2.2,0.9l1.3-0.4c0.8-0.2,1.4-1.1,1.4-2l-0.6-2.3c-0.4-0.8-1.2-1.2-2.2-0.9
		l-1.3,0.4c-0.8,0.2-1.4,1.1-1.4,2L273.9,57.5z"/>
	<path class="st6" d="M265.9,59.7c0.4,0.8,1.2,1.2,2.2,0.9l1.3-0.4c0.8-0.2,1.4-1.1,1.4-2l-0.6-2.3c-0.4-0.8-1.2-1.2-2.2-0.9
		l-1.3,0.4c-0.8,0.2-1.4,1.1-1.4,2L265.9,59.7z"/>
	<path class="st6" d="M258.2,62c0.4,0.8,1.2,1.2,2.2,0.9l1.3-0.4c0.8-0.2,1.4-1.1,1.4-2l-0.6-2.3c-0.4-0.8-1.2-1.2-2.2-0.9l-1.3,0.4
		c-0.8,0.2-1.4,1.1-1.4,2L258.2,62z"/>
	<path class="st6" d="M250.3,64.2c0.4,0.8,1.2,1.2,2.2,0.9l1.3-0.4c0.8-0.2,1.4-1.1,1.4-2l-0.6-2.3c-0.4-0.8-1.2-1.2-2.2-0.9L251,60
		c-0.8,0.2-1.4,1.1-1.4,2L250.3,64.2z"/>
	<path class="st6" d="M242.5,66.5c0.4,0.8,1.2,1.2,2.2,0.9L246,67c0.8-0.2,1.4-1.1,1.4-2l-0.6-2.3c-0.4-0.8-1.2-1.2-2.2-0.9
		l-1.3,0.4c-0.8,0.2-1.4,1.1-1.4,2L242.5,66.5z"/>
	<path class="st6" d="M234.6,68.7c0.4,0.8,1.2,1.2,2.2,0.9l1.3-0.4c0.8-0.2,1.4-1.1,1.4-2l-0.6-2.3c-0.4-0.8-1.2-1.2-2.2-0.9
		l-1.3,0.4c-0.8,0.2-1.4,1.1-1.4,2L234.6,68.7z"/>
	<path class="st6" d="M226.8,71c0.4,0.8,1.2,1.2,2.2,0.9l1.3-0.4c0.8-0.2,1.4-1.1,1.4-2l-0.6-2.3c-0.4-0.8-1.2-1.2-2.2-0.9l-1.3,0.4
		c-0.8,0.2-1.4,1.1-1.4,2L226.8,71z"/>
	<path class="st6" d="M218.9,73.3c0.4,0.8,1.2,1.2,2.2,0.9l1.3-0.4c0.8-0.2,1.4-1.1,1.4-2l-0.6-2.3c-0.4-0.8-1.2-1.2-2.2-0.9
		l-1.3,0.4c-0.8,0.2-1.4,1.1-1.4,2L218.9,73.3z"/>
	<path class="st27" d="M262.7,73.3L242.8,79c-1.3,0.4-2.5,0.9-3.7,1.6l-21.8,13.6c-0.6,0.3-0.7,1.1-0.4,1.5s0.9,0.6,1.4,0.5
		l47.2-13.5c2.6-0.7,4.1-3.4,3.3-6S265.2,72.5,262.7,73.3L262.7,73.3L262.7,73.3z"/>
	<path class="st27" d="M193.2,79.4l-7.9,2.3c-0.8,0.2-1.6,0.6-2.3,1l-13.3,8.4c-0.3,0.3-0.5,0.7-0.3,0.9c0.3,0.3,0.5,0.4,0.8,0.3
		l24.7-7.1c1.6-0.5,2.5-2.1,2.1-3.7C196.5,79.9,194.8,78.9,193.2,79.4L193.2,79.4L193.2,79.4z"/>
	<polygon class="st27" points="197.4,69.3 170.3,77.1 154.7,58.8 168.6,54.8 	"/>
</g>
<g>
	<defs>
		<rect id="SVGID_9_" x="244.3" y="188.9" width="112.9" height="36.6"/>
	</defs>
	<clipPath id="SVGID_10_">
		<use xlink:href="#SVGID_9_"  style="overflow:visible;"/>
	</clipPath>
	<g class="st41">
		<rect x="252.8" y="213.8" class="st27" width="78.8" height="5.1"/>
		<path class="st40" d="M349.6,220c0,0.2,0,0.4,0,0.6h-9.1c0-0.2,0-0.4,0-0.6c0-2.5,2.1-4.6,4.6-4.6
			C347.6,215.4,349.6,217.5,349.6,220z"/>
		<path class="st42" d="M354,207.1v12c0,0.8-0.7,1.5-1.5,1.5h-1.7c-0.1-5.2-1.9-6.5-5.8-6.5c-4,0-5.7,1.3-5.8,6.5h-7.6V198
			c0-0.8,0.7-1.5,1.5-1.5h15.2c0.6,0,1.1,0.3,1.3,0.8l4.3,9.2C354,206.7,354,206.9,354,207.1z"/>
		<path class="st29" d="M345,215.4c-2.5,0-4.6,2.1-4.6,4.6c0,0.2,0,0.4,0,0.6c0.3,2.2,2.2,4,4.5,4c2.3,0,4.2-1.7,4.5-4
			c0-0.2,0-0.4,0-0.6C349.6,217.5,347.6,215.4,345,215.4z"/>
		<path class="st29" d="M328.9,213.8v-19.1c0-1.2-1-2.2-2.2-2.2h-69.7c-1.2,0-2.2,1-2.2,2.2v19.1H328.9z"/>
		<g>
			<path class="st43" d="M259.4,210.6h-0.9c-0.2,0-0.4-0.2-0.4-0.4v-14.1c0-0.2,0.2-0.4,0.4-0.4h0.9c0.2,0,0.4,0.2,0.4,0.4v14.1
				C259.7,210.4,259.6,210.6,259.4,210.6z"/>
			<path class="st43" d="M263,210.6h-0.9c-0.2,0-0.4-0.2-0.4-0.4v-14.1c0-0.2,0.2-0.4,0.4-0.4h0.9c0.2,0,0.4,0.2,0.4,0.4v14.1
				C263.4,210.4,263.2,210.6,263,210.6z"/>
			<path class="st43" d="M266.7,210.6h-0.9c-0.2,0-0.4-0.2-0.4-0.4v-14.1c0-0.2,0.2-0.4,0.4-0.4h0.9c0.2,0,0.4,0.2,0.4,0.4v14.1
				C267.1,210.4,266.9,210.6,266.7,210.6z"/>
			<path class="st43" d="M270.4,210.6h-0.9c-0.2,0-0.4-0.2-0.4-0.4v-14.1c0-0.2,0.2-0.4,0.4-0.4h0.9c0.2,0,0.4,0.2,0.4,0.4v14.1
				C270.7,210.4,270.6,210.6,270.4,210.6z"/>
			<path class="st43" d="M274,210.6h-0.9c-0.2,0-0.4-0.2-0.4-0.4v-14.1c0-0.2,0.2-0.4,0.4-0.4h0.9c0.2,0,0.4,0.2,0.4,0.4v14.1
				C274.4,210.4,274.2,210.6,274,210.6z"/>
			<path class="st43" d="M277.7,210.6h-0.9c-0.2,0-0.4-0.2-0.4-0.4v-14.1c0-0.2,0.2-0.4,0.4-0.4h0.9c0.2,0,0.4,0.2,0.4,0.4v14.1
				C278.1,210.4,277.9,210.6,277.7,210.6z"/>
			<path class="st43" d="M281.4,210.6h-0.9c-0.2,0-0.4-0.2-0.4-0.4v-14.1c0-0.2,0.2-0.4,0.4-0.4h0.9c0.2,0,0.4,0.2,0.4,0.4v14.1
				C281.7,210.4,281.6,210.6,281.4,210.6z"/>
			<path class="st43" d="M285,210.6h-0.9c-0.2,0-0.4-0.2-0.4-0.4v-14.1c0-0.2,0.2-0.4,0.4-0.4h0.9c0.2,0,0.4,0.2,0.4,0.4v14.1
				C285.4,210.4,285.2,210.6,285,210.6z"/>
			<path class="st43" d="M288.7,210.6h-0.9c-0.2,0-0.4-0.2-0.4-0.4v-14.1c0-0.2,0.2-0.4,0.4-0.4h0.9c0.2,0,0.4,0.2,0.4,0.4v14.1
				C289,210.4,288.9,210.6,288.7,210.6z"/>
			<path class="st43" d="M292.3,210.6h-0.9c-0.2,0-0.4-0.2-0.4-0.4v-14.1c0-0.2,0.2-0.4,0.4-0.4h0.9c0.2,0,0.4,0.2,0.4,0.4v14.1
				C292.7,210.4,292.5,210.6,292.3,210.6z"/>
			<path class="st43" d="M296,210.6h-0.9c-0.2,0-0.4-0.2-0.4-0.4v-14.1c0-0.2,0.2-0.4,0.4-0.4h0.9c0.2,0,0.4,0.2,0.4,0.4v14.1
				C296.4,210.4,296.2,210.6,296,210.6z"/>
			<path class="st43" d="M299.7,210.6h-0.9c-0.2,0-0.4-0.2-0.4-0.4v-14.1c0-0.2,0.2-0.4,0.4-0.4h0.9c0.2,0,0.4,0.2,0.4,0.4v14.1
				C300,210.4,299.9,210.6,299.7,210.6z"/>
			<path class="st43" d="M303.3,210.6h-0.9c-0.2,0-0.4-0.2-0.4-0.4v-14.1c0-0.2,0.2-0.4,0.4-0.4h0.9c0.2,0,0.4,0.2,0.4,0.4v14.1
				C303.7,210.4,303.5,210.6,303.3,210.6z"/>
			<path class="st43" d="M307,210.6h-0.9c-0.2,0-0.4-0.2-0.4-0.4v-14.1c0-0.2,0.2-0.4,0.4-0.4h0.9c0.2,0,0.4,0.2,0.4,0.4v14.1
				C307.3,210.4,307.2,210.6,307,210.6z"/>
			<path class="st43" d="M310.7,210.6h-0.9c-0.2,0-0.4-0.2-0.4-0.4v-14.1c0-0.2,0.2-0.4,0.4-0.4h0.9c0.2,0,0.4,0.2,0.4,0.4v14.1
				C311,210.4,310.9,210.6,310.7,210.6z"/>
			<path class="st43" d="M314.3,210.6h-0.9c-0.2,0-0.4-0.2-0.4-0.4v-14.1c0-0.2,0.2-0.4,0.4-0.4h0.9c0.2,0,0.4,0.2,0.4,0.4v14.1
				C314.7,210.4,314.5,210.6,314.3,210.6z"/>
			<path class="st43" d="M318,210.6h-0.9c-0.2,0-0.4-0.2-0.4-0.4v-14.1c0-0.2,0.2-0.4,0.4-0.4h0.9c0.2,0,0.4,0.2,0.4,0.4v14.1
				C318.3,210.4,318.2,210.6,318,210.6z"/>
			<path class="st43" d="M321.6,210.6h-0.9c-0.2,0-0.4-0.2-0.4-0.4v-14.1c0-0.2,0.2-0.4,0.4-0.4h0.9c0.2,0,0.4,0.2,0.4,0.4v14.1
				C322,210.4,321.8,210.6,321.6,210.6z"/>
			<path class="st43" d="M325.3,210.6h-0.9c-0.2,0-0.4-0.2-0.4-0.4v-14.1c0-0.2,0.2-0.4,0.4-0.4h0.9c0.2,0,0.4,0.2,0.4,0.4v14.1
				C325.7,210.4,325.5,210.6,325.3,210.6z"/>
		</g>
		<path class="st44" d="M340.2,202.4c0,0.3-0.2,0.5-0.5,0.5h-2.9c-0.3,0-0.5-0.2-0.5-0.5v-3.1c0-0.3,0.2-0.5,0.5-0.5h2.9
			c0.3,0,0.5,0.2,0.5,0.5V202.4z"/>
		<path class="st45" d="M268.3,220c0,2.5-2.1,4.6-4.6,4.6c-2.5,0-4.6-2.1-4.6-4.6c0-2.5,2.1-4.6,4.6-4.6
			C266.3,215.4,268.3,217.5,268.3,220"/>
		<path class="st27" d="M266.3,220c0,1.4-1.2,2.6-2.6,2.6c-1.4,0-2.6-1.2-2.6-2.6c0-1.4,1.2-2.6,2.6-2.6
			C265.2,217.4,266.3,218.6,266.3,220"/>
		<path class="st45" d="M278.9,220c0,2.5-2.1,4.6-4.6,4.6c-2.5,0-4.6-2.1-4.6-4.6c0-2.5,2.1-4.6,4.6-4.6
			C276.8,215.4,278.9,217.5,278.9,220"/>
		<path class="st27" d="M276.9,220c0,1.4-1.2,2.6-2.6,2.6c-1.4,0-2.6-1.2-2.6-2.6c0-1.4,1.2-2.6,2.6-2.6
			C275.7,217.4,276.9,218.6,276.9,220"/>
		<path class="st45" d="M317.2,220c0,2.5-2.1,4.6-4.6,4.6c-2.5,0-4.6-2.1-4.6-4.6c0-2.5,2.1-4.6,4.6-4.6
			C315.1,215.4,317.2,217.5,317.2,220"/>
		<path class="st27" d="M315.2,220c0,1.4-1.2,2.6-2.6,2.6c-1.4,0-2.6-1.2-2.6-2.6c0-1.4,1.2-2.6,2.6-2.6
			C314,217.4,315.2,218.6,315.2,220"/>
		<path class="st45" d="M327.7,220c0,2.5-2.1,4.6-4.6,4.6c-2.5,0-4.6-2.1-4.6-4.6c0-2.5,2.1-4.6,4.6-4.6
			C325.6,215.4,327.7,217.5,327.7,220"/>
		<path class="st27" d="M325.7,220c0,1.4-1.2,2.6-2.6,2.6c-1.4,0-2.6-1.2-2.6-2.6c0-1.4,1.2-2.6,2.6-2.6
			C324.5,217.4,325.7,218.6,325.7,220"/>
		<path class="st45" d="M349.6,220c0,0.2,0,0.4,0,0.6c-0.3,2.2-2.2,4-4.5,4c-2.3,0-4.2-1.7-4.5-4c0-0.2,0-0.4,0-0.6
			c0-2.5,2.1-4.6,4.6-4.6C347.6,215.4,349.6,217.5,349.6,220z"/>
		<path class="st27" d="M347.6,220c0,1.4-1.2,2.6-2.6,2.6c-1.4,0-2.6-1.2-2.6-2.6c0-1.4,1.2-2.6,2.6-2.6
			C346.5,217.4,347.6,218.6,347.6,220"/>
		<path class="st27" d="M291.6,222.1H282c-0.4,0-0.8-0.4-0.8-0.8v-4.8c0-0.4,0.4-0.8,0.8-0.8h9.6c0.4,0,0.8,0.4,0.8,0.8v4.8
			C292.4,221.8,292,222.1,291.6,222.1z"/>
		<path class="st44" d="M351.1,208.9h-8.4c-0.3,0-0.5-0.2-0.5-0.5v-8.9c0-0.3,0.2-0.5,0.5-0.5h5c0.2,0,0.4,0.1,0.5,0.3l3.4,7.2
			c0,0.1,0.1,0.2,0.1,0.2v1.7C351.6,208.6,351.4,208.9,351.1,208.9z"/>
		<g>
			<polygon points="288.2,206 288.2,202 289.3,202 290.6,205 292,202 293,202 293,206 292.1,206 292.1,203.7 291.1,206 290.2,206 
				289.1,203.7 289.1,206 			"/>
			<path d="M294.4,206h-1l1.8-4h1.3l1.8,4h-1l-0.3-0.8h-2.1L294.4,206z M296.5,204.4l-0.7-1.7l-0.7,1.7H296.5z"/>
			<polygon points="298.6,206 298.6,202 302.4,202 302.4,202.8 299.5,202.8 299.5,203.6 302,203.6 302,204.3 299.5,204.3 
				299.5,205.2 302.4,205.2 302.4,206 			"/>
			<path d="M303.1,206v-4h3.2c0.4,0,0.7,0.2,0.7,0.7v1.3c0,0.3-0.3,0.6-0.8,0.6h-0.1l0.9,1.4h-1l-0.9-1.4h-1.1v1.4H303.1z
				 M304.1,203.8h2v-1h-2V203.8z"/>
			<path d="M308.6,206h-0.3c-0.4,0-0.6-0.2-0.6-0.6v-0.5h0.9v0.3h2v-0.8h-2.3c-0.4,0-0.6-0.2-0.6-0.6v-1.2c0-0.4,0.3-0.6,0.6-0.6
				h2.6c0.3,0,0.6,0.3,0.6,0.6v0.5h-0.9v-0.3h-2v0.8h2.2c0.3,0,0.6,0.2,0.6,0.6v1.1c0,0.4-0.2,0.6-0.6,0.6H308.6z"/>
			<polygon points="312.4,206 312.4,202 313.4,202 313.4,203.6 315.2,202 316.4,202 314.3,203.8 316.5,206 315.2,206 313.4,204.2 
				313.4,206 			"/>
			<path class="st40" d="M284.4,207.5c0,0.6-0.5,1-1,1h-6.5c-0.6,0-1-0.5-1-1v-7c0-0.6,0.5-1,1-1h6.5c0.6,0,1,0.5,1,1V207.5z"/>
			<polygon class="st6" points="281.5,203.7 283.2,201.6 283.2,201.6 280.7,202.8 280.1,200.1 280.1,200.1 279.5,202.8 277.1,201.6 
				277.1,201.6 278.8,203.7 276.3,204.9 276.3,204.9 279,204.9 278.4,207.6 278.4,207.6 280.1,205.5 281.8,207.6 281.8,207.6 
				281.2,204.9 283.9,204.9 283.9,204.9 			"/>
		</g>
	</g>
</g>
</svg>
