<svg enable-background="new 0 0 252.5 180" viewBox="0 0 252.5 180" xmlns="http://www.w3.org/2000/svg" xmlns:xlink="http://www.w3.org/1999/xlink"><clipPath id="a"><path d="m126.1 173.9c11.2 0 21.4-.3 30.9-.8 10.4-.5 20.6-1.7 30.9-3.5 12.5-2.3 22.6-5.7 30.9-10.3 23.5-13 30.9-35.8 30.9-72.4s-7.4-59.4-30.9-72.4c-8.2-4.5-18.3-7.9-30.9-10.3-10.3-1.8-20.5-3-30.9-3.5-9.3-.4-19.6-.7-30.9-.7s-21.4.3-30.9.8c-10.3.5-20.6 1.7-30.8 3.5-12.5 2.3-22.6 5.7-30.9 10.1-23.3 13.1-30.7 35.8-30.7 72.5s7.3 59.4 30.9 72.4c8.2 4.5 18.3 7.8 30.8 10.1 10.3 1.8 20.5 3 30.9 3.5 9.3.7 19.6 1 30.7 1z"/></clipPath><g clip-path="url(#a)"><path d="m-5.7-1.6h275.6v180.5h-275.6z" fill="#e5f6fd"/><path d="m-5.7 143.1h258.7v70h-258.7z" fill="#ededed"/><path d="m135 151.5v-37.4c0-2.4-1.9-4.3-4.3-4.3h-136.5c-2.4 0-4.3 1.9-4.3 4.3v37.4z" fill="#f7f7f7"/><g fill="#e2e2e2"><path d="m-3 116.1h1.7c.4 0 .7.3.7.7v27.7c0 .4-.3.7-.7.7h-1.7c-.4 0-.7-.3-.7-.7v-27.7c0-.4.3-.7.7-.7z"/><path d="m4.2 116.1h1.7c.4 0 .7.3.7.7v27.7c0 .4-.3.7-.7.7h-1.7c-.4 0-.7-.3-.7-.7v-27.7c0-.4.3-.7.7-.7z"/><path d="m11.4 116.1h1.7c.4 0 .7.3.7.7v27.7c0 .4-.3.7-.7.7h-1.7c-.4 0-.7-.3-.7-.7v-27.7c-0-.4.3-.7.7-.7z"/><path d="m18.6 116.1h1.7c.4 0 .7.3.7.7v27.7c0 .4-.3.7-.7.7h-1.7c-.4 0-.7-.3-.7-.7v-27.7c-0-.4.3-.7.7-.7z"/><path d="m25.7 116.1h1.7c.4 0 .7.3.7.7v27.7c0 .4-.3.7-.7.7h-1.7c-.4 0-.7-.3-.7-.7v-27.7c0-.4.3-.7.7-.7z"/><path d="m32.9 116.1h1.7c.4 0 .7.3.7.7v27.7c0 .4-.3.7-.7.7h-1.7c-.4 0-.7-.3-.7-.7v-27.7c0-.4.3-.7.7-.7z"/><path d="m40.1 116.1h1.7c.4 0 .7.3.7.7v27.7c0 .4-.3.7-.7.7h-1.7c-.4 0-.7-.3-.7-.7v-27.7c0-.4.3-.7.7-.7z"/><path d="m47.3 116.1h1.7c.4 0 .7.3.7.7v27.7c0 .4-.3.7-.7.7h-1.7c-.4 0-.7-.3-.7-.7v-27.7c0-.4.3-.7.7-.7z"/><path d="m54.4 116.1h1.7c.4 0 .7.3.7.7v27.7c0 .4-.3.7-.7.7h-1.7c-.4 0-.7-.3-.7-.7v-27.7c0-.4.3-.7.7-.7z"/><path d="m61.6 116.1h1.7c.4 0 .7.3.7.7v27.7c0 .4-.3.7-.7.7h-1.7c-.4 0-.7-.3-.7-.7v-27.7c0-.4.3-.7.7-.7z"/><path d="m68.8 116.1h1.7c.4 0 .7.3.7.7v27.7c0 .4-.3.7-.7.7h-1.7c-.4 0-.7-.3-.7-.7v-27.7c0-.4.3-.7.7-.7z"/><path d="m76 116.1h1.7c.4 0 .7.3.7.7v27.7c0 .4-.3.7-.7.7h-1.7c-.4 0-.7-.3-.7-.7v-27.7c0-.4.3-.7.7-.7z"/><path d="m83.1 116.1h1.7c.4 0 .7.3.7.7v27.7c0 .4-.3.7-.7.7h-1.7c-.4 0-.7-.3-.7-.7v-27.7c0-.4.4-.7.7-.7z"/><path d="m90.3 116.1h1.7c.4 0 .7.3.7.7v27.7c0 .4-.3.7-.7.7h-1.7c-.4 0-.7-.3-.7-.7v-27.7c0-.4.3-.7.7-.7z"/><path d="m97.5 116.1h1.7c.4 0 .7.3.7.7v27.7c0 .4-.3.7-.7.7h-1.7c-.4 0-.7-.3-.7-.7v-27.7c0-.4.3-.7.7-.7z"/><path d="m104.7 116.1h1.7c.4 0 .7.3.7.7v27.7c0 .4-.3.7-.7.7h-1.7c-.4 0-.7-.3-.7-.7v-27.7c0-.4.3-.7.7-.7z"/><path d="m111.8 116.1h1.7c.4 0 .7.3.7.7v27.7c0 .4-.3.7-.7.7h-1.7c-.4 0-.7-.3-.7-.7v-27.7c0-.4.4-.7.7-.7z"/><path d="m119 116.1h1.7c.4 0 .7.3.7.7v27.7c0 .4-.3.7-.7.7h-1.7c-.4 0-.7-.3-.7-.7v-27.7c0-.4.3-.7.7-.7z"/><path d="m126.2 116.1h1.7c.4 0 .7.3.7.7v27.7c0 .4-.3.7-.7.7h-1.7c-.4 0-.7-.3-.7-.7v-27.7c0-.4.3-.7.7-.7z"/></g><path d="m141 130.5c0-.2-.2-.3-.3-.3h-.4c-.2 0-.3.2-.3.3" fill="#00243f"/><path d="m-10.8 7.5h263.3v175.6h-263.3z" fill="none"/></g><g fill="#44bde2"><path d="m115.1 22.7s41.9 6.8 55.7 9.1c13.9 2.1 33-3.3 33-3.3l1.4-4.2-1.7-.3 8.9-22.3-4.2-.7s-8.6 8.8-13.3 13.2c-2.8 2.7-4.7 3.5-4.7 3.5l-10 2s-4.5-.7-10.9-1.7l-1.7 3s-.4.6-1.4.8c-1 .1-5.4 1.3-5.4 1.3l-4.2 2.5-7.8-1.3-.4 3s-3.5.8-8.8-1.4c-.4-.1.7-4.4.7-4.4s2.5-.4 5.5.4c.4 0 1-.1 1.6-.1 4.5-.1 16-.8 16-.8s.8-.1 2.3-1.6c.4-.4 1-1.1 1.6-1.7-15-2.4-38.3-6.2-44.8-7.2-9.8-1.6-14.6.3-16 1.1s-3.5 3.7-2.8 5.1c3 5.6 11.4 6 11.4 6zm83.8.1 2.1.3-4.4 1.7s-6.5 1-7.4-1.1z"/><path d="m163.2 20.9s-11.5.8-16 .8c-.6 0-1.1 0-1.6.1 1 .3 2.1.8 3.1 1.6l-.1.8 7.8 1.3 4.2-2.5s4.4-1 5.4-1.3c1-.1 1.4-.8 1.4-.8l1.7-3 1.8-3.4-1.3.1s-1.4 1.6-2.8 3c-.6.7-1.1 1.3-1.6 1.7-1.2 1.4-2 1.6-2 1.6z"/><path d="m145.6 21.8c-3-.8-5.5-.4-5.5-.4s-1.1 4.2-.7 4.4c5.2 2.3 8.8 1.4 8.8 1.4l.4-3 .1-.8c-1-.8-1.9-1.3-3.1-1.6z"/><path d="m196.8 24.8 4.4-1.7-2.1-.3-9.5.8c.7 2.2 7.2 1.2 7.2 1.2z"/></g><path d="m204.6 173.1v-41.6l-9 2.7 4.8 38z" fill="#966e5a"/><path d="m204.6 173.1v-41.6l9.7-2.9-5.7 43.6z" fill="#ad836f"/><path d="m200.4 172.2-1.8 5.9c-.2.7.2 1.3.9 1.3h5v-6.1z" fill="#00243d"/><path d="m208.6 172.2 1.8 5.9c.2.7-.2 1.3-.9 1.3h-5v-6.1z" fill="#00243d"/><path d="m186.9 92 3.4 16.3-.1 3.1c0 .1 0 .3.1.5l2.7 6c.2.5.7.7 1 .6l.8-.1v-6.7l-2-3.5-1.4-16.4 1.3-5.1-5.1-1-.8 4.9c0 .5 0 .9.1 1.4z" fill="#ad836f"/><path d="m199.4 64.5c-2 0-3.5-1.6-3.5-3.7 0-2.3 0-6.5 0-7.7 0-7.3 2.3-9.6 8.8-9.6s8.8 2.2 8.8 9.6v7.7c0 2.2-1.5 3.7-3.5 3.7z" fill="#00243d"/><path d="m211.1 49.5v9.4c0 2.3-2 3.8-2 3.8v2.4l-4.3 13.1-4.4-12.9v-2.3s-1.8-1.7-1.8-3.7c0-.5 0-7.6 0-7.6 2.2 1.5 4.7 1 6.5-.3 1.1-1 2.6-1.9 6-1.9" fill="#ad836f"/><path d="m207.5 55.4h.5c.2 0 .3-.1.3-.3v-.5c0-.2-.1-.3-.3-.3h-.5c-.2 0-.3.1-.3.3v.4c-.1.2 0 .4.3.4" fill="#00243d"/><path d="m201.8 55.4h.5c.2 0 .3-.1.3-.3v-.5c0-.2-.1-.3-.3-.3h-.5c-.2 0-.3.1-.3.3v.4c0 .2.1.4.3.4" fill="#00243d"/><path d="m200.4 62.9v2.3l.9 2.7c5.9.3 7.7-5.2 7.7-5.2-2.7 2.4-5 3.4-8.6.2" fill="#966e5a"/><path d="m200.4 65.2-.7 9.1 5 3.8 4.6-3.8-.2-9.2-4.4 13z" fill="#fff"/><path d="m194.5 82.8 2.7 12.1-3.8 9.1c-.8 2-1 4-.8 6.1l3.7 36.5 17.3-4.7 3.2-32.3c.2-1.8 0-3.8-.6-5.7l-3.2-8.9 2.9-12.2 1.6 4.3 6.4-2.3-3.4-10.5c-.7-2-2.1-3.7-3.9-4.6l-4-2.1-3.4-2.5-4.3 10.3-4.3-10.2-3.1 2.1-3.4 1.5c-2.4 1.2-4.2 3.4-4.6 6l-1.7 11 6 1.3z" fill="#00243d"/><path d="m208.5 112.1 10.4 3.1c.5.1 1-.1 1.2-.6l1.2-3.9c.1-.5-.1-1-.6-1.2l-10.4-3.1c-.5-.1-1 .1-1.2.6l-1.2 3.9c-.2.5 0 1.1.6 1.2z" fill="#b5e0f5"/><path d="m213.4 107.5-1.4-.6c-.2-.1-.3-.3-.3-.6v-.1c0-.2.2-.5.6-.6l3.4-.3 3.2 1.4-1.8 4.9c-.2.5-.7.8-1.3.6l-2.1-.7c-.5-.1-.8-.6-.7-1.2z" fill="#ad836f"/><path d="m218.8 106.7 6-15.9c.3-.8.3-1.7.1-2.7l-1-3.4-5 1.8 1.3 3.2-4.6 15.5z" fill="#ad836f"/><path d="m171.3 52.8c0-5-2-6.7-7.5-6.7s-7 2.1-7 7.6c0 3.6 2 5 2 5 0-.7.2-4.3.2-4.3l10.1-2.1s.1 6.1.5 6c.8-.6 1.7-3.1 1.7-5.5" fill="#700008"/><path d="m169.7 50.4v6h.3c.5 0 .9.3.9 1.5 0 1.5-.3 1.6-1.2 1.6v1.3c0 2.1-1.4 3.1-1.4 3.1v1.7l-.9 5.1-6.7-.1-.9-4.9v-1.8s-1.4-1.2-1.4-2.9c0-.5 0-.7 0-1.2-1 0-1-.5-1-1.8s.5-1.6.8-1.6h.3v-2.9z" fill="#dca48c"/><path d="m169.8 59.4c.9 0 1.2-.1 1.2-1.6 0-1-.3-1.5-.9-1.5h-.3v-3.3l-5.2-1.3-6 1.6v2.9l11.3 4.5v-.1-1.2z" fill="#dca48c"/><path d="m166.6 57.3h.5c.1 0 .3-.1.3-.3v-.5c0-.1-.1-.3-.3-.3h-.5c-.1 0-.3.1-.3.3v.5c-.1.2.2.3.3.3" fill="#00243d"/><path d="m161.3 57.3h.5c.1 0 .3-.1.3-.3v-.5c0-.1-.1-.3-.3-.3h-.5c-.1 0-.3.1-.3.3v.5c-.1.2.1.3.3.3" fill="#00243d"/><path d="m159.8 63.9v3s1.7 2.5 1.8 2.5c4.3-.1 6.8-5.7 6.8-5.7-3.4 3-5.4 3.5-8.6.2" fill="#bc8e7a"/><path d="m164.6 171.7v3.5c0 .5.5.9.9.9h16.2v-1c0-.8-.5-1.5-1.2-1.7l-10.2-3.9z" fill="#700008"/><path d="m150.6 171.4 5.2-1.8 4.5 1.7v4c0 .5-.5.9-.9.9h-11.2v-1.2c-.1-1.8.9-3.2 2.4-3.6z" fill="#700008"/><path d="m151.7 84.5v19.8l-.1-.2-.3.3-2.4-11.6z" fill="none"/><path d="m142.3 90.3 5.4-16.2c.7-1.8 2-3.5 3.8-4.3l6.8-3.4 1.3-.9-.1 2.4 4.5 5.9 4.3-4.7.3-3.5 1 .7 6.1 2.5c1.8.9 3.5 2.9 4.4 5.5 0 0 3.9 14.9 4.3 16.2.3 1.4.2 2.9.2 2.9l-.2 4.4-7-2.1.3-1.8-1.8-8.8v25.6h-3.2c-2 0-2.9-.9-2.9-2.9v-2.3h-11.2v2.9c0 2-.7 2.8-2.7 2l-3.9-6.4v-19.5s-2.1 8.9-3.1 12.7c-1.4 5.2-5.3 1.4-5.3 1.4l.6-1.2-3.8-2.1 2.1-.9c-.8-1.4-.6-2.7-.2-4.1z" fill="#5ea7cd"/><path d="m169.6 105.9h-11.2v-39.3l1.4-1.2s.5 4.5 4.3 4.5 4.4-4.7 4.4-4.7l1.3 1.3z" fill="#5ea7cd"/><path d="m175.8 98.4-3.8-3.8v-27l-2.3-.9v12.7h-11.3v-12.7l-2.5 1.2v26.8l-4 2.9-1.8 11.7.3 35.8v.5l2.3 25.1 8.4 2.1v-26.9l2-23.9 2.1 21-1.4 30.4 8.5-2.9 3.2-26.2c0-.2 0-.6 0-.8l.2-34.1v-11z" fill="#91deef"/><path d="m165.1 60.1c-.7.5-1.3.7-2.2 0 0 0-2.1.1-2.5 2.1h7.3s-.7-2.1-2.6-2.1z" fill="#700008"/><path d="m183.3 97.8-2.3 14.4c-.3.9-.3 5.1-.7 5.4l-3.2 4c-1.2.5-1.2-.8-1.2-2.3 0-1.4 0-2.3 0-4.3 0-2.5 1.7-5 1.7-5l1-13.9z" fill="#dca48c"/><path d="m138.6 95.2c-.7-.3-1.6-.5-3-.5-2.8-.1-4.2-.9-3.9-4 .2-4.7 1-4.7 6.6-3.2 1.5.3 2 2.7 2.9 3.8.8.9 4 2.3 5.2 2.9 3.6 2.2.1 7.5-2.8 5.3-1.7-1.5-3.8-3.8-5-4.3z" fill="#dca48c"/><path d="m137 87.2c.2-.1 2 .6 2 .6l.3-1.3s-.9-.5-2.1-1c-1.2-.6-2.3-5.1-10.1-.3-6.1 3.7-6 7.7-5.3 10.4l.9.2c1.2-.9 1.2-2.9 4.7-5.5-3.5 6.2-1.5 9.7.5 11.7l.9-.2c.6-1.4-.5-3.1 1.6-7.4.1 6.1 3.5 7.9 6 8.5l.7-.6c-.2-1.4-2.2-2.4-2.2-7.7 0-.7 0-2.5 0-3.1.1-3.4 1.4-4 2.1-4.3z" fill="#ffa201"/><path d="m136.8 89.2s-2.2-.9-3.5-1.4c-.8-.2-.3-2.3 1-1.8s3.8 1.3 4.6 1.6c.5.4-1.2 1.9-2.1 1.6z" fill="#ad836f"/><path d="m115.5 74.2c0 2.2-1.8 4.1-4.1 4.1h-25.7c-2.2 0-4.1-1.8-4.1-4.1v-27.6c0-2.2 1.8-4.1 4.1-4.1h25.7c2.2 0 4.1 1.8 4.1 4.1z" fill="#fff"/><path d="m103 75.2-4.3 12.2-4.5-12.6z" fill="#fff"/><path d="m89.5 51.6h18.6v18.6h-18.6z" fill="#ff8678" transform="matrix(1 -.00103757 .00103757 1 -.063191 .1025)"/><path d="m97 55.9 2.1-1.3 2.1 1.3v-4.3h-4.2z" fill="#ffeccc"/><path d="m66.4 99.1c0 3.2-2.6 5.8-5.8 5.8h-36.5c-3.2 0-5.8-2.6-5.8-5.8v-39.2c0-3.2 2.6-5.8 5.8-5.8h36.5c3.2 0 5.8 2.6 5.8 5.8z" fill="#fff"/><path d="m48.6 100.5-6.1 17.4-6.4-17.8z" fill="#fff"/><path d="m33.5 61.7h17.9v17.9h-17.9z" fill="#ffce7f" transform="matrix(1 -.00103757 .00103757 1 -.073272 .044112)"/><path d="m40.8 65.8 2-1.3 2.1 1.3v-4.1h-4.1z" fill="#ff6d00"/><path d="m24.2 80.8h17.9v17.9h-17.9z" fill="#ffce7f" transform="matrix(1 -.00103757 .00103757 1 -.09313 .034489)"/><path d="m31.5 84.9 2-1.2 2.1 1.2v-4.1h-4.1z" fill="#ff6d00"/><path d="m43.5 80.8h17.9v17.9h-17.9z" fill="#ffce7f" transform="matrix(1 -.00103757 .00103757 1 -.0931 .054437)"/><path d="m50.7 84.9 2.1-1.3 2 1.3v-4.1h-4.1z" fill="#ff6d00"/></svg>