<svg enable-background="new 0 0 672.6 475.1" viewBox="0 0 672.6 475.1" xmlns="http://www.w3.org/2000/svg" xmlns:xlink="http://www.w3.org/1999/xlink"><clipPath id="a"><path d="m252.2 2.3c-31.6 1.9-59.5 5.1-84.1 9.6-34.1 6.4-61.8 15.5-84.1 27.8-64.1 35.5-84 97.6-84 197.9s19.9 162.4 84.1 197.8c22.3 12.3 50 21.4 84.1 27.8 24.6 4.6 52.5 7.7 84.1 9.6 25.5 1.5 53.5 2.3 84.1 2.3s58.5-.7 84.1-2.3c31.6-1.9 59.5-5.1 84.1-9.7 34-6.4 61.7-15.5 84.1-27.9 64-35.5 84.1-97.6 84.1-197.6s-20.3-162.2-84.3-197.7c-22.3-12.4-50-21.5-84.1-27.9-24.6-4.6-52.5-7.8-84.1-9.7-25.5-1.6-53.4-2.3-84-2.3s-58.5.7-84.1 2.3"/></clipPath><clipPath id="b"><path d="m205.5 102.9c-.6-11.1-1.9-22.1-3.8-33.1-2.5-13.4-6.1-24.3-10.9-33.1-14-25.2-38.4-33-77.8-33s-63.8 7.8-77.8 33.1c-4.9 8.8-8.4 19.7-10.9 33.1-1.9 10.9-3.2 22-3.8 33.1-.6 10-.9 21-.9 33.1s.3 23 .9 33.1c.6 11.1 1.9 22.1 3.8 33.1 2.5 13.4 6.1 24.3 11 33.1 14 25.2 38.4 33.1 77.7 33.1s63.7-7.9 77.7-33.1c4.9-8.8 8.5-19.7 11-33.1 1.9-10.9 3.2-22 3.8-33.1.6-10.1.9-21.1.9-33.1s-.3-23.1-.9-33.2z"/></clipPath><clipPath id="c"><path d="m664.1 102.9c-.6-11.1-1.9-22.1-3.8-33.1-2.5-13.4-6.1-24.3-10.9-33.1-14-25.2-38.4-33-77.8-33s-63.8 7.8-77.8 33.1c-4.9 8.8-8.4 19.7-10.9 33.1-1.9 10.9-3.2 22-3.8 33.1-.6 10-.9 21-.9 33.1s.3 23 .9 33.1c.6 11.1 1.9 22.1 3.8 33.1 2.5 13.4 6.1 24.3 11 33.1 14 25.2 38.4 33.1 77.7 33.1s63.7-7.9 77.7-33.1c4.9-8.8 8.5-19.7 11-33.1 1.9-10.9 3.2-22 3.8-33.1.6-10.2.9-21.2.9-33.2s-.3-23-.9-33.1z"/></clipPath><path d="m252.2 2.3c-31.6 1.9-59.5 5.1-84.1 9.6-34.1 6.4-61.8 15.5-84.1 27.8-64.1 35.5-84 97.6-84 197.9s19.9 162.4 84.1 197.8c22.3 12.3 50 21.4 84.1 27.8 24.6 4.6 52.5 7.7 84.1 9.6 25.5 1.5 53.5 2.3 84.1 2.3s58.5-.7 84.1-2.3c31.6-1.9 59.5-5.1 84.1-9.7 34-6.4 61.7-15.5 84.1-27.9 64-35.5 84.1-97.6 84.1-197.6s-20.3-162.2-84.3-197.7c-22.3-12.4-50-21.5-84.1-27.9-24.6-4.6-52.5-7.8-84.1-9.7-25.5-1.6-53.4-2.3-84-2.3s-58.5.7-84.1 2.3" fill="#e5f4fb"/><g clip-path="url(#a)"><path d="m372.7 315.7c11.3 0 20.2-9.1 20.2-21.7 0-13.1 0-79.1 0-86.6 0-42.5-13.7-55.4-51.1-55.4s-51.1 12.9-51.1 55.4v86.6c0 12.6 8.9 21.7 20.2 21.7z"/><path d="m366.8 277.6 49.2 24.5c13.3 6.6 22.7 19 25.6 33.5l20.7 105.2c1.4 6.9-.7 14-5.6 19l-32.9 33.9-13.7-13-127 3.4-1.3 6.3-50.5-9.3c-9.3-1.8-15.6-10.7-14.1-20.1l19.6-125.4c2-12.9 10.2-24.1 22-29.8l28-13.7 29.8-14.6h50.2z" fill="#4a6477"/><path d="m305.3 186.7.1 54.2c0 13.2 11.2 22.1 11.2 22.1v14.1l25.1 58.2 25.3-57.3v-13.5s10.9-10.4 10.9-21.4c0-2.8-.2-44.3-.2-44.3-11.6 7.8-27 7-37.9-1.8-6.4-5.1-15.6-10.3-34.5-10.3z" fill="#ffccb4"/><path d="m317.6 221c0-2.4 1.9-4.3 4.3-4.3h6.2c2.4 0 4.3 1.9 4.3 4.3z"/><path d="m351.3 221c0-2.4 1.9-4.3 4.3-4.3h6.2c2.4 0 4.3 1.9 4.3 4.3z"/><path d="m367 264.5v13.5l-10.6 24.1c-28.4-1.6-39.7-39.1-39.7-39.1 16.2 14.4 29.5 20.1 50.3 1.5z" fill="#e0ad98"/><path d="m352 252.2h-20.8c0 4.8 20.8 5.1 20.8 0z" fill="#fff"/><g fill="#00243f"><path d="m286.5 589.6c-18.3 0-33.1-14.8-33.1-33.1 0-1.5.1-3 .3-4.5l8-57.5h161.4l-30.6 78"/><path d="m373.1 589.6 50-95.2 5.9 62.3c1.6 16.5-10.5 31.2-27 32.7-1 .1-2 .1-2.9.1"/><path d="m403.6 723.1-75.5-211.5-70.1 29.4 99 201.7"/></g><path d="m266.6 364.5h150c6.9 0 12.5 5.6 12.5 12.5v103.5c0 6.9-5.6 12.5-12.5 12.5h-150c-6.9 0-12.5-5.6-12.5-12.5v-103.5c-0-6.9 5.6-12.5 12.5-12.5z" fill="#f9f9f9"/><path d="m264.3 634.4 131.3-147.1c9.6-10.7 26-11.7 36.7-2.1.4.3.7.7 1.1 1l14.4 14.3c10.4 10.3 10.5 27.2.2 37.6-.4.4-.8.7-1.2 1.1l-146.7 130.8" fill="#304d63"/><path d="m326.8 347.8 15-12.5 14.1 13.3 11.1-70.6-25.2 57.3-25.1-58.2z" fill="#bed24a"/></g><path d="m205.5 102.9c-.6-11.1-1.9-22.1-3.8-33.1-2.5-13.4-6.1-24.3-10.9-33.1-14-25.2-38.4-33-77.8-33s-63.8 7.8-77.8 33.1c-4.9 8.8-8.4 19.7-10.9 33.1-1.9 10.9-3.2 22-3.8 33.1-.6 10-.9 21-.9 33.1s.3 23 .9 33.1c.6 11.1 1.9 22.1 3.8 33.1 2.5 13.4 6.1 24.3 11 33.1 14 25.2 38.4 33.1 77.7 33.1s63.7-7.9 77.7-33.1c4.9-8.8 8.5-19.7 11-33.1 1.9-10.9 3.2-22 3.8-33.1.6-10.1.9-21.1.9-33.1s-.3-23.1-.9-33.2z" fill="#c6ebfa"/><g clip-path="url(#b)"><path d="m231.9 134.4h-129c0-6.3 3.1-12.2 12.6-12.2h4.6c0-6.3 6.6-14 23.3-14h17.4c0-8.4 4.2-14.4 21.6-14.4 23.9 0 24.6 11.7 24.6 24.4 25.2-.1 24.9 16.2 24.9 16.2z" fill="#f7f7f7"/><path d="m97.9 61.1h-129c0-6.3 3.1-12.1 12.5-12.1h4.6c0-6.3 6.6-14 23.3-14h17.4c0-8.4 4.2-14.4 21.6-14.4 24-.1 24.7 11.6 24.7 24.3 25.2 0 24.9 16.2 24.9 16.2z" fill="#f7f7f7"/><path d="m113.8 240.9h-129c0-6.3 3.1-12.2 12.5-12.2h4.6c0-6.3 6.6-14 23.3-14h17.4c0-8.4 4.2-14.4 21.6-14.4 23.9 0 24.6 11.7 24.6 24.4 25.3-.1 25 16.2 25 16.2z" fill="#f7f7f7"/><path d="m35.5 147.7c0-3.5 1.9-6.8 4.9-8.6l23.3-13.5c3.6-2 7.1-2.8 12.3-2.8h235.1l-12.1 26.6c-3.9 8.6-12.5 14.2-22 14.2h-205.2c-12.8 0-23.5-2.6-31-7.1-.4-.2-.9-.5-1.3-.8 0 0-.1 0-.1-.1-2.4-1.8-3.9-4.8-3.9-7.9z" fill="#cfde7a"/><path d="m174.8 170.6v12c6.1 0 12.5-.5 18-2.7v-6.9c-6.7-2.6-18-2.4-18-2.4z" fill="#cfcfcf"/><path d="m177.3 184.6h-19.8c-3.5 0-5.6-1.5-5.6-4.5v-6.9c0-3.4 1.8-4.6 5.6-4.6h19.8z" fill="#cfde7a"/><path d="m103.2 138.4c-.1 1.5-1.4 2.5-2.9 2.4h-2.2c-1.5.1-2.8-1-2.9-2.4v-3.8c.2-1.5 1.4-2.5 2.9-2.4h2.2c1.5-.1 2.8.9 2.9 2.4z" fill="#ededed"/><path d="m89.9 145.4c0 1.8-1.8 3.3-4 3.3h-2.9c-2.2 0-4-1.5-4-3.3v-11.2c0-1.8 1.8-3.3 4-3.3h2.9c2.2 0 4 1.5 4 3.3z" fill="#ededed"/><path d="m60.4 127.5h7.2c1.8 0 3.3 1.8 3.3 3.9v2.9c0 2.2-1.5 3.9-3.3 3.9h-25.8" fill="#fafafa"/><g fill="#ededed"><path d="m250.2 145.4c0 1.8-1.8 3.3-3.9 3.3h-2.9c-2.2 0-4-1.5-4-3.3v-11.2c0-1.8 1.8-3.3 4-3.3h2.9c2.2 0 3.9 1.5 3.9 3.3z"/><path d="m116.3 138.4c-.2 1.5-1.5 2.5-2.9 2.4h-2.2c-1.5.1-2.8-1-2.9-2.4v-3.8c.2-1.5 1.5-2.5 2.9-2.4h2.2c1.5-.1 2.8.9 2.9 2.4z"/><path d="m129.4 138.4c-.1 1.5-1.4 2.5-2.9 2.4h-2.2c-1.5.1-2.8-1-2.9-2.4v-3.8c.2-1.5 1.4-2.5 2.9-2.4h2.2c1.5-.1 2.8 1 2.9 2.4z"/><path d="m142.5 138.4c-.1 1.5-1.4 2.5-2.9 2.4h-2.2c-1.5.1-2.8-1-2.9-2.4v-3.8c.2-1.5 1.4-2.5 2.9-2.4h2.2c1.5-.1 2.8.9 2.9 2.4z"/><path d="m155.6 138.4c-.1 1.5-1.4 2.5-2.9 2.4h-2.2c-1.5.1-2.8-1-2.9-2.4v-3.8c.2-1.5 1.4-2.5 2.9-2.4h2.2c1.5-.1 2.8.9 2.9 2.4z"/><path d="m168.7 138.4c-.1 1.5-1.4 2.5-2.9 2.4h-2.2c-1.5.1-2.8-1-2.9-2.4v-3.8c.1-1.5 1.4-2.5 2.9-2.4h2.2c1.5-.1 2.8.9 2.9 2.4z"/><path d="m181.8 138.4c-.1 1.5-1.4 2.5-2.9 2.4h-2.2c-1.5.1-2.8-1-2.9-2.4v-3.8c.2-1.5 1.4-2.5 2.9-2.4h2.2c1.5-.1 2.8.9 2.9 2.4z"/><path d="m194.9 138.4c-.1 1.5-1.4 2.5-2.9 2.4h-2.2c-1.5.1-2.8-1-2.9-2.4v-3.8c.2-1.5 1.4-2.5 2.9-2.4h2.2c1.5-.1 2.8 1 2.9 2.4z"/><path d="m208 138.4c-.1 1.5-1.4 2.5-2.9 2.4h-2.1c-1.5.1-2.8-1-2.9-2.4v-3.8c.2-1.5 1.5-2.5 2.9-2.4h2.2c1.5-.1 2.8.9 2.9 2.4z"/><path d="m221.1 138.4c-.1 1.5-1.4 2.5-2.9 2.4h-2.2c-1.5.1-2.8-1-2.9-2.4v-3.8c.2-1.5 1.4-2.5 2.9-2.4h2.2c1.5-.1 2.8.9 2.9 2.4z"/><path d="m234.2 138.4c-.1 1.5-1.4 2.5-2.9 2.4h-2.2c-1.5.1-2.8-1-2.9-2.4v-3.8c.2-1.5 1.4-2.5 2.9-2.4h2.2c1.5-.1 2.8.9 2.9 2.4z"/></g><path d="m166.8 157.9h33.2c2.2 0 4.4.3 6.5.9l39.6 11.2c1 .3 1.5 1.3 1.2 2.3-.2.8-.9 1.3-1.7 1.3h-78.9c-4.4.2-8-3.2-8.2-7.6s3.2-8 7.6-8.2c.3-0 .5-0 .7.1z" fill="#f4f7e0"/><path d="m276.7 136.5h13.3c1.4 0 2.7.2 4 .6l24.3 6.9c.6.2.9.8.8 1.4-.1.5-.6.8-1.1.8h-41.3c-2.7-.1-4.7-2.4-4.6-5.1.1-2.5 2.1-4.5 4.6-4.6z" fill="#f4f7e0"/><path d="m265.7 122.8h45.4l16-35.3h-23.3z" fill="#f4f7e0"/></g><g opacity=".75"><g fill="#66acd0"><path d="m126.6 308.7h74.1v4.9h-74.1z"/><path d="m126.6 321.2h82.6v4.9h-82.6z"/><path d="m126.6 346.3h82.7v4.9h-82.7z"/><path d="m126.6 333.8h60.5v4.9h-60.5z"/></g><path d="m126.6 368.5h74.1v4.9h-74.1z" fill="#aae1f8"/><path d="m126.6 381h82.6v4.9h-82.6z" fill="#aae1f8"/><path d="m126.6 393.5h60.5v4.9h-60.5z" fill="#aae1f8"/><path d="m98.7 326.1v53.7" fill="none" stroke="#00243f" stroke-miterlimit="10"/><circle cx="98" cy="323.9" fill="#00b2d9" r="7.4"/><circle cx="98.7" cy="381.3" fill="#a3bf00" r="7.4"/></g><g opacity=".59"><path d="m545 355.7h7.4v31.6h-7.4z" fill="#fff"/><path d="m553.6 388.7h-12v-34.3h12z" fill="#66acd0"/><path d="m574.8 330.7h7.5v55.7h-7.5z" fill="#fff"/><path d="m584.5 388.7h-12v-60.3h12z" fill="#66acd0"/><path d="m512.9 343.1h7.5v43.3h-7.5z" fill="#fff"/><path d="m522.7 388.7h-12v-47.8h12z" fill="#66acd0"/><path d="m516.7 323.7 30.9 16.6 30.9-28.7" fill="none" stroke="#00243f" stroke-miterlimit="10" stroke-width="1.13"/><circle cx="547.6" cy="340.3" fill="#bed24a" r="3.7"/><circle cx="578.5" cy="311.6" fill="#66acd0" r="3.7"/><path d="m489.8 388.7h-12v-56.7h12z" fill="#66acd0"/><path d="m516.7 324-34.5-9.6" fill="none" stroke="#00243f" stroke-miterlimit="10" stroke-width="1.13"/><ellipse cx="482.2" cy="314.4" fill="#bed24a" rx="3.7" ry="3.7" transform="matrix(.1602 -.9871 .9871 .1602 94.5466 740.0063)"/><circle cx="516.7" cy="324" fill="#66acd0" r="3.7"/></g><path d="m664.1 102.9c-.6-11.1-1.9-22.1-3.8-33.1-2.5-13.4-6.1-24.3-10.9-33.1-14-25.2-38.4-33-77.8-33s-63.8 7.8-77.8 33.1c-4.9 8.8-8.4 19.7-10.9 33.1-1.9 10.9-3.2 22-3.8 33.1-.6 10-.9 21-.9 33.1s.3 23 .9 33.1c.6 11.1 1.9 22.1 3.8 33.1 2.5 13.4 6.1 24.3 11 33.1 14 25.2 38.4 33.1 77.7 33.1s63.7-7.9 77.7-33.1c4.9-8.8 8.5-19.7 11-33.1 1.9-10.9 3.2-22 3.8-33.1.6-10.2.9-21.2.9-33.2s-.3-23-.9-33.1z" fill="#c5ebfa"/><g clip-path="url(#c)"><path d="m686.9 211.7v-59c0-3.7-3-6.8-6.8-6.8h-215.6c-3.8 0-6.8 3-6.8 6.8v59z" fill="#f7f7f7"/><g fill="#e2e2e2"><path d="m469 155.8h2.7c.6 0 1.1.5 1.1 1.1v43.7c0 .6-.5 1.1-1.1 1.1h-2.7c-.6 0-1.1-.5-1.1-1.1v-43.7c0-.6.5-1.1 1.1-1.1z"/><path d="m480.3 155.8h2.7c.6 0 1.1.5 1.1 1.1v43.7c0 .6-.5 1.1-1.1 1.1h-2.7c-.6 0-1.1-.5-1.1-1.1v-43.7c0-.6.5-1.1 1.1-1.1z"/><path d="m491.6 155.8h2.7c.6 0 1.1.5 1.1 1.1v43.7c0 .6-.5 1.1-1.1 1.1h-2.7c-.6 0-1.1-.5-1.1-1.1v-43.7c0-.6.5-1.1 1.1-1.1z"/><path d="m503 155.8h2.7c.6 0 1.1.5 1.1 1.1v43.7c0 .6-.5 1.1-1.1 1.1h-2.7c-.6 0-1.1-.5-1.1-1.1v-43.7c0-.6.5-1.1 1.1-1.1z"/><path d="m514.3 155.8h2.7c.6 0 1.1.5 1.1 1.1v43.7c0 .6-.5 1.1-1.1 1.1h-2.7c-.6 0-1.1-.5-1.1-1.1v-43.7c0-.6.5-1.1 1.1-1.1z"/><path d="m525.6 155.8h2.7c.6 0 1.1.5 1.1 1.1v43.7c0 .6-.5 1.1-1.1 1.1h-2.7c-.6 0-1.1-.5-1.1-1.1v-43.7c0-.6.5-1.1 1.1-1.1z"/><path d="m537 155.8h2.7c.6 0 1.1.5 1.1 1.1v43.7c0 .6-.5 1.1-1.1 1.1h-2.7c-.6 0-1.1-.5-1.1-1.1v-43.7c0-.6.4-1.1 1.1-1.1z"/><path d="m548.3 155.8h2.7c.6 0 1.1.5 1.1 1.1v43.7c0 .6-.5 1.1-1.1 1.1h-2.7c-.6 0-1.1-.5-1.1-1.1v-43.7c0-.6.5-1.1 1.1-1.1z"/><path d="m559.6 155.8h2.7c.6 0 1.1.5 1.1 1.1v43.7c0 .6-.5 1.1-1.1 1.1h-2.7c-.6 0-1.1-.5-1.1-1.1v-43.7c0-.6.5-1.1 1.1-1.1z"/><path d="m571 155.8h2.7c.6 0 1.1.5 1.1 1.1v43.7c0 .6-.5 1.1-1.1 1.1h-2.7c-.6 0-1.1-.5-1.1-1.1v-43.7c0-.6.4-1.1 1.1-1.1z"/><path d="m582.3 155.8h2.7c.6 0 1.1.5 1.1 1.1v43.7c0 .6-.5 1.1-1.1 1.1h-2.7c-.6 0-1.1-.5-1.1-1.1v-43.7c0-.6.5-1.1 1.1-1.1z"/><path d="m593.6 155.8h2.7c.6 0 1.1.5 1.1 1.1v43.7c0 .6-.5 1.1-1.1 1.1h-2.7c-.6 0-1.1-.5-1.1-1.1v-43.7c0-.6.5-1.1 1.1-1.1z"/><path d="m605 155.8h2.7c.6 0 1.1.5 1.1 1.1v43.7c0 .6-.5 1.1-1.1 1.1h-2.7c-.6 0-1.1-.5-1.1-1.1v-43.7c0-.6.4-1.1 1.1-1.1z"/><path d="m616.3 155.8h2.7c.6 0 1.1.5 1.1 1.1v43.7c0 .6-.5 1.1-1.1 1.1h-2.7c-.6 0-1.1-.5-1.1-1.1v-43.7c0-.6.5-1.1 1.1-1.1z"/><path d="m627.6 155.8h2.7c.6 0 1.1.5 1.1 1.1v43.7c0 .6-.5 1.1-1.1 1.1h-2.7c-.6 0-1.1-.5-1.1-1.1v-43.7c0-.6.5-1.1 1.1-1.1z"/><path d="m638.9 155.8h2.7c.6 0 1.1.5 1.1 1.1v43.7c0 .6-.5 1.1-1.1 1.1h-2.7c-.6 0-1.1-.5-1.1-1.1v-43.7c.1-.6.5-1.1 1.1-1.1z"/><path d="m650.3 155.8h2.7c.6 0 1.1.5 1.1 1.1v43.7c0 .6-.5 1.1-1.1 1.1h-2.7c-.6 0-1.1-.5-1.1-1.1v-43.7c0-.6.5-1.1 1.1-1.1z"/><path d="m661.6 155.8h2.7c.6 0 1.1.5 1.1 1.1v43.7c0 .6-.5 1.1-1.1 1.1h-2.7c-.6 0-1.1-.5-1.1-1.1v-43.7c0-.6.5-1.1 1.1-1.1z"/><path d="m672.9 155.8h2.7c.6 0 1.1.5 1.1 1.1v43.7c0 .6-.5 1.1-1.1 1.1h-2.7c-.6 0-1.1-.5-1.1-1.1v-43.7c.1-.6.5-1.1 1.1-1.1z"/></g><path d="m544.4 185.8v-14h3.7l4.7 10.4 4.7-10.4h3.5v14h-3v-8.2l-3.6 8.2h-3.2l-3.6-8.1v8.1z"/><path d="m566 185.8h-3.6l6.2-13.9h4.4l6.2 13.9h-3.5l-1.2-2.8h-7.3zm7.3-5.4-2.6-5.9-2.5 5.9z"/><path d="m580.7 185.8v-14h13.3v2.8h-10.1v2.8h8.6v2.7h-8.6v2.9h10.1v2.8z"/><path d="m596.6 185.8v-13.9h11.1c1.2-.1 2.2.7 2.3 1.9v.4 4.7c0 1.1-1 2-2.8 2h-.2l3.2 4.9h-3.6l-3.1-4.7h-3.7v4.8zm3.2-7.6h7v-3.6h-7z"/><path d="m615.9 185.8h-1.1c-1 .1-2-.6-2.1-1.7 0-.1 0-.3 0-.4v-1.8h3.2v1.1h6.9v-2.9h-7.9c-1.1.1-2.1-.7-2.2-1.8 0-.1 0-.1 0-.2v-4.1c0-1.2.9-2.1 2.1-2.1h.1 9c1.1 0 2.1.9 2.1 2v.2 1.7h-3.2v-1.1h-6.9v2.8h7.9c1.2-.1 2.2.9 2.2 2v.2 4c.1 1.1-.7 2.1-1.8 2.2-.1 0-.2 0-.4 0z"/><path d="m629.2 185.8v-14h3.3v5.6l6.3-5.6h4.4l-7.5 6.5 7.8 7.5h-4.6l-6.4-6.4v6.4z"/><path d="m531.1 191c0 2-1.6 3.6-3.6 3.6h-22.8c-2 0-3.6-1.6-3.6-3.6v-24.4c0-2 1.6-3.6 3.6-3.6h22.8c2 0 3.6 1.6 3.6 3.6z" fill="#00b2d9"/><path d="m520.9 178 5.9-7.5-8.6 4.1-2.1-9.2-2.1 9.2-8.6-4.1 5.9 7.5-8.6 4.1h9.5l-2.1 9.3h.1l5.9-7.4 5.9 7.4-2.1-9.3h9.5z" fill="#fff"/></g><g fill="#fff"><path d="m608.3 75.5c0 4.3-3.4 7.7-7.7 7.7h-48.6c-4.3 0-7.7-3.4-7.7-7.7v-52.2c0-4.3 3.4-7.7 7.7-7.7h48.6c4.3 0 7.7 3.4 7.7 7.7z"/><path d="m584.5 77.4-8 23.1-8.6-23.7z"/><path d="m528.9 123.2c0 2.8-2.2 5-5 5h-31.7c-2.8 0-5-2.2-5-5v-34c0-2.8 2.2-5 5-5h31.7c2.8 0 5 2.2 5 5z"/><path d="m513.4 124.3-5.2 15.2-5.6-15.5z"/></g><path d="m496.9 94.8h23v23h-23z" fill="#ff8678"/><path d="m506.1 100.6 2.6-1.6 2.6 1.6v-5.2h-5.2z" fill="#ffeccc"/><path d="m564.5 25.7h23.8v23.8h-23.8z" fill="#ffb67f" transform="matrix(1 -.00104715 .00104715 1 -.03904 .6036)"/><path d="m574.2 31.1 2.7-1.7 2.7 1.7v-5.4h-5.5z" fill="#ff6d00"/><path d="m552.1 51.2h23.8v23.8h-23.8z" fill="#ffb67f" transform="matrix(1 -.00104715 .00104715 1 -.065735 .5907)"/><path d="m561.8 56.6 2.7-1.7 2.7 1.7v-5.4h-5.4z" fill="#ff6d00"/><path d="m577.7 51.1h23.8v23.8h-23.8z" fill="#ffb67f" transform="matrix(1 -.00104715 .00104715 1 -.065697 .6175)"/><path d="m587.4 56.5 2.7-1.6 2.7 1.6v-5.4h-5.4z" fill="#ff6d00"/><path d="m668.8 121.6c0 3.3-2.7 6-6 6h-38c-3.3 0-6-2.7-6-6v-40.7c0-3.3 2.7-6 6-6h38c3.3 0 6 2.7 6 6z" fill="#fff"/><path d="m650.2 123.1-6.3 18.1-6.7-18.6z" fill="#fff"/><path d="m628.8 87.1h30.5v30.5h-30.5z" fill="#4097c4" transform="matrix(1 -.00104715 .00104715 1 -.1068 .6745)"/><path d="m641.2 94 3.4-2.1 3.5 2.1v-6.9h-6.9z" fill="#cfcfcf"/><path d="m256.6 32.3h152.4c3 0 5.5 2.4 5.5 5.5v60c0 3-2.4 5.4-5.5 5.4h-152.4c-3 0-5.5-2.4-5.5-5.4v-60c.1-3 2.5-5.5 5.5-5.5z" fill="#f9f9f9"/><path d="m298.5 117.7v-22.4h-30.8l24.8 24.8c1.4 1.4 3.5 1.4 4.9 0 .8-.5 1.1-1.4 1.1-2.4z" fill="#f9f9f9"/><path d="m316.3 53.4h78.5v3.3h-78.5z" fill="#00b2d9"/><path d="m313.8 61.9h81v3.3h-81z" fill="#00b2d9"/><path d="m330.9 78.8h63.9v3.3h-63.9z" fill="#00b2d9"/><path d="m348.2 70.4h46.6v3.3h-46.6z" fill="#00b2d9"/><path d="m277.8 58.6c0-5.3 1.5-6.6 5.4-6.6s5.3 1.3 5.3 6.6-1.6 6.6-5.3 6.6-5.4-1.3-5.4-6.6z" fill="#ff5e4b"/><path d="m270.7 83.3c0-12.6 3.7-15.8 12.9-15.8 9 0 12.7 3.1 12.7 15.8z" fill="#ff5e4b"/><path d="m337 111.3h81c2.3 0 4.2 1.9 4.2 4.2v45.9c0 2.3-1.9 4.2-4.2 4.2h-81c-2.3 0-4.2-1.9-4.2-4.2v-45.9c0-2.3 1.9-4.2 4.2-4.2z" fill="#fff"/><path d="m374.2 176.6v-17.1h23.5l-19 19c-1 1-2.7 1-3.7 0-.5-.5-.8-1.2-.8-1.9z" fill="#fff"/><path d="m347.8 127.5h60v2.5h-60z" fill="#00b2d9"/><path d="m347.8 133.9h61.9v2.5h-61.9z" fill="#00b2d9"/><path d="m347.8 146.9h48.9v2.5h-48.9z" fill="#00b2d9"/><path d="m347.8 140.4h35.6v2.5h-35.6z" fill="#00b2d9"/></svg>