<?xml version="1.0" encoding="utf-8"?>
<!-- Generator: Adobe Illustrator 24.0.3, SVG Export Plug-In . SVG Version: 6.00 Build 0)  -->
<svg version="1.1" id="Layer_1" xmlns="http://www.w3.org/2000/svg" xmlns:xlink="http://www.w3.org/1999/xlink" x="0px" y="0px"
	 viewBox="0 0 368.6 296.5" style="enable-background:new 0 0 368.6 296.5;" xml:space="preserve">
<style type="text/css">
	.st0{fill:#E1F5FC;}
	.st1{clip-path:url(#SVGID_2_);}
	.st2{fill:#EDEDED;}
	.st3{fill:#F7F7F7;}
	.st4{fill:#E2E2E2;}
	.st5{fill:#00B2D9;}
	.st6{fill:#FFFFFF;}
	.st7{fill:#00243F;}
	.st8{fill:#335066;}
	.st9{fill:#CFCFCF;}
	.st10{fill:#FF8678;}
	.st11{fill:#FF5E4B;}
	.st12{fill:#FFECCC;}
	.st13{fill:#545454;}
	.st14{fill:#FFCCB4;}
	.st15{fill:#40C5E3;}
	.st16{fill:#4D6679;}
	.st17{fill:#FFCE7F;}
	.st18{fill:#FF6D00;}
	.st19{fill:#4097C4;}
	.st20{fill:#B4816B;}
	.st21{fill:#878787;}
	.st22{fill:#33C1E1;}
	.st23{fill:#007A6B;}
	.st24{fill-rule:evenodd;clip-rule:evenodd;fill:#FFCCB4;}
	.st25{fill:#004F3F;}
	.st26{fill:#47CCC3;}
	.st27{fill:#7FDBD5;}
</style>
<title>Artboard 1</title>
<path class="st0" d="M364.9,130.5c0,52.9-10.5,85.7-44.4,104.4c-11.8,6.5-26.4,11.3-44.4,14.7c-13,2.4-27.7,4.1-44.4,5.1
	c-13.5,0.8-28.3,1.2-44.4,1.2c-16.1,0-30.9-0.4-44.4-1.2c-16.7-1-31.4-2.7-44.4-5.1c-18-3.4-32.6-8.2-44.4-14.7
	C20.2,216.1,9.6,183.3,9.6,130.5S20.2,45,54,26.3c11.8-6.5,26.4-11.4,44.4-14.7c13-2.4,27.7-4.1,44.4-5.1
	c13.5-0.8,28.3-1.2,44.4-1.2c16.2,0,30.9,0.4,44.4,1.2c16.7,1,31.4,2.7,44.4,5.1c18,3.4,32.6,8.2,44.4,14.7
	C354.4,44.9,364.9,77.7,364.9,130.5z"/>
<g>
	<defs>
		<path id="SVGID_1_" d="M364.9,130.5c0,52.9-10.5,85.7-44.4,104.4c-11.8,6.5-26.4,11.3-44.4,14.7c-13,2.4-27.7,4.1-44.4,5.1
			c-13.5,0.8-28.3,1.2-44.4,1.2c-16.1,0-30.9-0.4-44.4-1.2c-16.7-1-31.4-2.7-44.4-5.1c-18-3.4-32.6-8.2-44.4-14.7
			C20.2,216.1,9.6,183.3,9.6,130.5S20.2,45,54,26.3c11.8-6.5,26.4-11.4,44.4-14.7c13-2.4,27.7-4.1,44.4-5.1
			c13.5-0.8,28.3-1.2,44.4-1.2c16.2,0,30.9,0.4,44.4,1.2c16.7,1,31.4,2.7,44.4,5.1c18,3.4,32.6,8.2,44.4,14.7
			C354.4,44.9,364.9,77.7,364.9,130.5z"/>
	</defs>
	<clipPath id="SVGID_2_">
		<use xlink:href="#SVGID_1_"  style="overflow:visible;"/>
	</clipPath>
	<g class="st1">
		<rect x="-28.2" y="144.5" class="st2" width="415.4" height="136.1"/>
	</g>
</g>
<path class="st3" d="M329.6,180v-71.7c0-4.6-3.7-8.2-8.2-8.2H59.5c-4.6,0-8.2,3.7-8.2,8.2v0V180H329.6z"/>
<path class="st4" d="M65,112.2h3.2c0.7,0,1.3,0.6,1.3,1.3v53.1c0,0.7-0.6,1.3-1.3,1.3H65c-0.7,0-1.3-0.6-1.3-1.3v-53.1
	C63.6,112.8,64.2,112.2,65,112.2z"/>
<path class="st4" d="M78.7,112.2H82c0.7,0,1.3,0.6,1.3,1.3v53.1c0,0.7-0.6,1.3-1.3,1.3h-3.2c-0.7,0-1.3-0.6-1.3-1.3v-53.1
	C77.4,112.8,78,112.2,78.7,112.2z"/>
<path class="st4" d="M92.5,112.2h3.2c0.7,0,1.3,0.6,1.3,1.3v53.1c0,0.7-0.6,1.3-1.3,1.3h-3.2c-0.7,0-1.3-0.6-1.3-1.3v-53.1
	C91.2,112.8,91.8,112.2,92.5,112.2z"/>
<path class="st4" d="M106.3,112.2h3.2c0.7,0,1.3,0.6,1.3,1.3v53.1c0,0.7-0.6,1.3-1.3,1.3h-3.2c-0.7,0-1.3-0.6-1.3-1.3v-53.1
	C104.9,112.8,105.5,112.2,106.3,112.2z"/>
<path class="st4" d="M120,112.2h3.2c0.7,0,1.3,0.6,1.3,1.3v53.1c0,0.7-0.6,1.3-1.3,1.3H120c-0.7,0-1.3-0.6-1.3-1.3v-53.1
	C118.7,112.8,119.3,112.2,120,112.2z"/>
<path class="st4" d="M133.8,112.2h3.2c0.7,0,1.3,0.6,1.3,1.3v53.1c0,0.7-0.6,1.3-1.3,1.3h-3.2c-0.7,0-1.3-0.6-1.3-1.3v-53.1
	C132.5,112.8,133,112.2,133.8,112.2z"/>
<path class="st4" d="M147.5,112.2h3.2c0.7,0,1.3,0.6,1.3,1.3v53.1c0,0.7-0.6,1.3-1.3,1.3h-3.2c-0.7,0-1.3-0.6-1.3-1.3v-53.1
	C146.2,112.8,146.8,112.2,147.5,112.2z"/>
<path class="st4" d="M161.3,112.2h3.2c0.7,0,1.3,0.6,1.3,1.3v53.1c0,0.7-0.6,1.3-1.3,1.3h-3.2c-0.7,0-1.3-0.6-1.3-1.3v-53.1
	C160,112.8,160.6,112.2,161.3,112.2z"/>
<path class="st4" d="M175.1,112.2h3.2c0.7,0,1.3,0.6,1.3,1.3v53.1c0,0.7-0.6,1.3-1.3,1.3h-3.2c-0.7,0-1.3-0.6-1.3-1.3v-53.1
	C173.7,112.8,174.3,112.2,175.1,112.2z"/>
<path class="st4" d="M188.8,112.2h3.2c0.7,0,1.3,0.6,1.3,1.3v53.1c0,0.7-0.6,1.3-1.3,1.3h-3.2c-0.7,0-1.3-0.6-1.3-1.3v-53.1
	C187.5,112.8,188.1,112.2,188.8,112.2z"/>
<path class="st4" d="M202.6,112.2h3.2c0.7,0,1.3,0.6,1.3,1.3v53.1c0,0.7-0.6,1.3-1.3,1.3h-3.2c-0.7,0-1.3-0.6-1.3-1.3v-53.1
	C201.3,112.8,201.9,112.2,202.6,112.2z"/>
<path class="st4" d="M216.4,112.2h3.2c0.7,0,1.3,0.6,1.3,1.3v53.1c0,0.7-0.6,1.3-1.3,1.3h-3.2c-0.7,0-1.3-0.6-1.3-1.3v-53.1
	C215,112.8,215.6,112.2,216.4,112.2z"/>
<path class="st4" d="M230.1,112.2h3.2c0.7,0,1.3,0.6,1.3,1.3v53.1c0,0.7-0.6,1.3-1.3,1.3h-3.2c-0.7,0-1.3-0.6-1.3-1.3v-53.1
	C228.8,112.8,229.4,112.2,230.1,112.2z"/>
<path class="st4" d="M243.9,112.2h3.2c0.7,0,1.3,0.6,1.3,1.3v53.1c0,0.7-0.6,1.3-1.3,1.3h-3.2c-0.7,0-1.3-0.6-1.3-1.3v-53.1
	C242.6,112.8,243.2,112.2,243.9,112.2z"/>
<path class="st4" d="M257.7,112.2h3.2c0.7,0,1.3,0.6,1.3,1.3v53.1c0,0.7-0.6,1.3-1.3,1.3h-3.2c-0.7,0-1.3-0.6-1.3-1.3v-53.1
	C256.3,112.8,256.9,112.2,257.7,112.2z"/>
<path class="st4" d="M271.4,112.2h3.2c0.7,0,1.3,0.6,1.3,1.3v53.1c0,0.7-0.6,1.3-1.3,1.3h-3.2c-0.7,0-1.3-0.6-1.3-1.3v-53.1
	C270.1,112.8,270.7,112.2,271.4,112.2z"/>
<path class="st4" d="M285.2,112.2h3.2c0.7,0,1.3,0.6,1.3,1.3v53.1c0,0.7-0.6,1.3-1.3,1.3h-3.2c-0.7,0-1.3-0.6-1.3-1.3v-53.1
	C283.9,112.8,284.5,112.2,285.2,112.2z"/>
<path class="st4" d="M299,112.2h3.2c0.7,0,1.3,0.6,1.3,1.3v53.1c0,0.7-0.6,1.3-1.3,1.3H299c-0.7,0-1.3-0.6-1.3-1.3v-53.1
	C297.6,112.8,298.2,112.2,299,112.2z"/>
<path class="st4" d="M312.7,112.2h3.2c0.7,0,1.3,0.6,1.3,1.3v53.1c0,0.7-0.6,1.3-1.3,1.3h-3.2c-0.7,0-1.3-0.6-1.3-1.3v-53.1
	C311.4,112.8,312,112.2,312.7,112.2z"/>
<polygon points="156.6,148.5 156.6,131.6 161.1,131.6 166.8,144.3 172.4,131.6 176.8,131.6 176.8,148.5 173,148.5 173,138.7 
	168.8,148.5 164.8,148.5 160.5,138.7 160.5,148.5 "/>
<path d="M182.8,148.5h-4.4l7.5-16.9h5.4l7.6,16.9h-4.3l-1.5-3.4h-8.8L182.8,148.5z M191.7,142l-3.1-7.2l-3,7.2H191.7z"/>
<polygon points="200.6,148.5 200.6,131.6 216.8,131.6 216.8,135 204.5,135 204.5,138.3 215,138.3 215,141.7 204.5,141.7 
	204.5,145.1 216.8,145.1 216.8,148.5 "/>
<path d="M220,148.5v-16.9h13.5c1.8,0,2.9,1,2.9,2.8v5.7c0,1.3-1.2,2.5-3.4,2.5h-0.4l3.9,5.9h-4.3l-3.7-5.8h-4.5v5.8L220,148.5z
	 M223.9,139.4h8.5V135h-8.5V139.4z"/>
<path d="M243.5,148.5h-1.3c-1.8,0-2.6-1-2.6-2.5v-2.2h3.9v1.3h8.4v-3.5h-9.6c-1.5,0-2.6-1-2.6-2.5v-5c0-1.4,1.1-2.6,2.6-2.6
	c0,0,0.1,0,0.1,0h11c1.5,0,2.5,1.1,2.5,2.7v2h-3.9V135h-8.4v3.3h9.6c1.4-0.1,2.6,1,2.7,2.5c0,0.1,0,0.2,0,0.3v4.8
	c0,1.7-0.9,2.6-2.6,2.6L243.5,148.5z"/>
<polygon points="259.5,148.5 259.5,131.6 263.5,131.6 263.5,138.4 271.2,131.6 276.6,131.6 267.5,139.5 277,148.5 271.3,148.5 
	263.5,140.8 263.5,148.5 "/>
<path class="st5" d="M140.4,154.9c0,2.4-2,4.4-4.4,4.4h-27.7c-2.4,0-4.4-2-4.4-4.4c0,0,0,0,0,0v-29.7c0-2.4,2-4.4,4.4-4.4
	c0,0,0,0,0,0H136c2.4,0,4.4,2,4.4,4.4L140.4,154.9z"/>
<polygon class="st6" points="128,139.1 135.2,130.1 135.2,130 124.8,135 122.2,123.8 122.2,123.8 119.6,135 109.2,130 109.2,130.1 
	116.4,139.1 106,144.1 106,144.1 117.5,144.1 115,155.4 115,155.4 122.2,146.4 129.4,155.4 129.4,155.3 126.8,144.1 138.4,144.1 
	138.4,144.1 "/>
<path class="st7" d="M202.5,226.1l-4.1,22.2c-0.5,2.6,0.4,5.2,2.4,6.9l18,16.1c0.1,0.1,0.3,0.2,0.5,0.2l4.9,0.5l2.2-2.5v-1.5
	c0-0.2-0.1-0.4-0.2-0.6l-15.8-18.7l6-16.7l2.7-6.7L202.5,226.1z"/>
<path class="st8" d="M219,221.7l-2.7,10.6l-3.1,20.1l-0.2,26c0,0.2-0.1,0.4-0.3,0.6l-3.1,3.2l-2.5-0.1l-3.2-3.4
	c-0.1-0.2-0.2-0.3-0.2-0.6l-1.4-26.3l-0.4-29.5L219,221.7z"/>
<path class="st8" d="M220.2,219l0.1,7.2c0,1.8-0.5,3.7-1.4,5.3l-3.5,6.5h-13"/>
<path class="st9" d="M210.3,281.4v3.6c0,0.5-0.4,0.9-0.9,0.9c0,0,0,0,0,0h-16.3v-1c0-0.8,0.5-1.6,1.3-1.9l10.1-3.9L210.3,281.4z"/>
<path class="st9" d="M226.3,269.7l2.3,2.7c0.3,0.4,0.3,0.9-0.1,1.2c0,0,0,0,0,0l-12.4,10.6l-0.6-0.7c-0.5-0.6-0.6-1.5-0.2-2.3
	l5.2-9.5L226.3,269.7z"/>
<path class="st7" d="M196.2,226.9l-7.8-2.5c-0.3-0.1-0.4-0.4-0.3-0.6l0.7-2.2c0.1-0.3,0.4-0.4,0.6-0.3c0,0,0,0,0,0l7.8,2.5
	c0.3,0.1,0.4,0.4,0.3,0.6c0,0,0,0,0,0l-0.7,2.2C196.7,226.8,196.4,227,196.2,226.9C196.2,226.9,196.2,226.9,196.2,226.9z"/>
<rect x="138" y="251" transform="matrix(0.3103 -0.9506 0.9506 0.3103 -146.4874 323.3036)" class="st10" width="23.2" height="23.2"/>
<rect x="151" y="236.9" transform="matrix(0.3104 -0.9506 0.9506 0.3104 -123.1864 320.1326)" class="st11" width="16.2" height="16.2"/>
<polygon class="st12" points="154.1,257.6 152,255.2 149,255.9 150.7,250.8 155.8,252.4 "/>
<rect x="184.3" y="218.6" transform="matrix(0.3105 -0.9506 0.9506 0.3105 -82.759 329.2143)" class="st13" width="2.6" height="6"/>
<rect x="141.4" y="267.1" transform="matrix(0.9057 -0.4239 0.4239 0.9057 -99.0394 90.9814)" class="st13" width="27.2" height="2.1"/>
<path class="st13" d="M130.3,268.5l-0.3,1c-0.3,0.9,0.2,1.9,1.1,2.1l30.3,9.9c0.9,0.3,1.9-0.2,2.1-1.1l0.3-1L130.3,268.5z"/>
<path class="st13" d="M163.7,278.9l-2.5-0.8l18.7-57c0.4-1.3,1.9-2.1,3.2-1.6c0,0,0,0,0,0l0,0L163.7,278.9z"/>
<path class="st7" d="M167.1,282c-0.9,2.9-4.1,4.5-7,3.5c-2.9-0.9-4.5-4.1-3.5-7c0.9-2.9,4.1-4.5,7-3.5c0,0,0,0,0,0
	C166.5,275.9,168.1,279.1,167.1,282z"/>
<path class="st9" d="M164.8,281.2c-0.5,1.6-2.3,2.5-3.9,2c-1.6-0.5-2.5-2.3-2-3.9c0.5-1.6,2.3-2.5,3.9-2
	C164.5,277.8,165.4,279.6,164.8,281.2C164.8,281.2,164.8,281.2,164.8,281.2z"/>
<path class="st7" d="M191.1,221.7l-1.1,3.2l-1.7-0.6c-0.3-0.1-0.4-0.4-0.3-0.6l0.7-2.2c0.1-0.3,0.4-0.4,0.6-0.3L191.1,221.7z"/>
<path class="st7" d="M210.1,164.5l0.2,2.7l-4.3-0.5c0,0-0.2-1.1-0.1-1.5c0.1-0.4,0.7-1.7,1-1.7C207.2,163.5,210.1,164.5,210.1,164.5
	z"/>
<path class="st14" d="M197,164.7c1.9-1.3,2.1-0.4,2.1-0.4l6.4,3l2.9,3.6l1,3.3l2.1,4.9l-7.7,6.8l-2.5-5.8l-6.1-4.3v-0.4l-1.6-0.6
	l1-3.7C194.6,167.2,195.1,166,197,164.7"/>
<path class="st7" d="M195.1,179.9c0.1,1.4,1,1.7,4.2,1.7c3.8,0,4.1-1,4.1-4.1c0-1,0-5.3,0.1-6.2c0-0.9,0-1.6,1.7-1.6
	c1.3,0,1.6,0.5,1.6,1.6c0,0.1,0,1.4,0,1.5c0,0.8,0.7,3,2.3,2.3c1-1.1,1.4-2.1,1.4-6.7v0c0-0.7-0.1-1.4-0.3-2.1
	c-0.3-0.9-0.8-1.7-1.5-2.3c-1.4-1.1-3.5-1.5-6.1-1.5c-4.9,0-6.1,1-6.7,3.2c0,0,2.2,0,3.5,0c0.6,0,1.1,0.2,1.5,0.6
	c0.3,0.4,0.5,1,0.5,1.6v6c0,1.1-0.9,2-2,2c0,0,0,0-0.1,0c-1.8,0-4.1,0-4.1,0s-0.2,1.4,0.4,1.7C195.2,178.2,195.1,178.6,195.1,179.9z
	"/>
<path class="st7" d="M196.5,171.6h0.4c0.2,0,0.3-0.1,0.3-0.3c0,0,0,0,0,0v-0.4c0-0.2-0.1-0.3-0.3-0.3h-0.4c-0.2,0-0.3,0.1-0.3,0.3
	v0.4C196.2,171.5,196.3,171.6,196.5,171.6C196.5,171.6,196.5,171.6,196.5,171.6"/>
<path class="st15" d="M211.4,179.1l-8.3,6.8c-0.4,0.3-0.6,0.7-0.7,1.2l-1,3.9l10.7-10.3L211.4,179.1z"/>
<path class="st7" d="M199.8,197.5l0.9,26.5l19.6-1.5l-0.1-4.8l-0.2-7l-0.2-3.5l-0.1-9.4l0-0.3l-0.1-5.4c0-1.7-0.7-3.4-1.8-4.7
	l-5.7-6.7l-8.6,7.4C200.8,190.4,199.4,193.9,199.8,197.5z"/>
<path class="st14" d="M194.7,218.6l-3.4,2.1l-1.7,4.2c-0.1,0.4-0.1,0.8,0.2,1l1.3,1.2c0.3,0.3,0.7,0.3,1.1,0.1l3.7-2l1.8-3.9"/>
<path class="st14" d="M194.7,218.6l3.1,2.9l15.1-6.9c0.6-0.4,1.1-1,1.3-1.7l4.2-11.7l-7.3-2.5l-3.7,11L194.7,218.6z"/>
<path class="st5" d="M208.4,167.5v-1.8c0-0.1,0-0.3,0.1-0.4c0.2-0.5,0.6-0.8,1.2-0.8h0.5c-0.1-0.5-0.2-1-0.3-1.5
	c-0.4-1.1-1.2-1.9-2.2-2.3c-1.1-0.5-2.8-0.7-5.1-0.7c-2.3,0-4,0.2-5.1,0.7c-1,0.4-1.8,1.2-2.2,2.3c-0.3,0.9-0.5,2.9-0.5,4.6H208.4z"
	/>
<path class="st5" d="M189.4,167.5l5.6,0v-1.6c-2.5,0-4.2,0-4.4,0C189.7,165.9,189.4,166.7,189.4,167.5z"/>
<polygon class="st16" points="210.4,167.5 208.4,167.5 208.4,166.1 210.2,166.1 "/>
<path class="st6" d="M220.4,68.1c0,3.7-3,6.6-6.6,6.6l-41.8,0c-3.7,0-6.6-3-6.6-6.6c0,0,0,0,0,0l0-44.9c0-3.7,3-6.6,6.6-6.6
	c0,0,0,0,0,0l41.8,0c3.7,0,6.6,3,6.6,6.6L220.4,68.1z"/>
<polygon class="st6" points="200,69.7 193,89.6 185.7,69.2 "/>
<path class="st6" d="M125.4,72.3c0,2.4-1.9,4.3-4.3,4.3l-27.3,0c-2.4,0-4.3-1.9-4.3-4.3c0,0,0,0,0,0l0-29.2c0-2.4,1.9-4.3,4.3-4.3
	c0,0,0,0,0,0l27.3,0c2.4,0,4.3,1.9,4.3,4.3L125.4,72.3z"/>
<polygon class="st6" points="112.1,73.4 107.6,86.4 102.8,73 "/>
<rect x="97.8" y="48.4" transform="matrix(1 -1.037567e-03 1.037567e-03 1 -6.043975e-02 0.1117)" class="st10" width="19.7" height="19.7"/>
<polygon class="st12" points="105.8,52.9 108,51.6 110.3,52.9 110.3,48.4 105.8,48.4 "/>
<rect x="182.7" y="25.2" transform="matrix(1 -1.037567e-03 1.037567e-03 1 -3.669048e-02 0.2002)" class="st17" width="20.5" height="20.5"/>
<polygon class="st18" points="191,29.9 193.4,28.5 195.7,29.9 195.7,25.2 191,25.2 "/>
<rect x="172.1" y="47.1" transform="matrix(1 -1.037567e-03 1.037567e-03 1 -5.943542e-02 0.1892)" class="st17" width="20.5" height="20.5"/>
<polygon class="st18" points="180.4,51.8 182.7,50.4 185.1,51.8 185.1,47.1 180.4,47.1 "/>
<rect x="194.1" y="47.1" transform="matrix(1 -1.037567e-03 1.037567e-03 1 -5.940120e-02 0.2121)" class="st17" width="20.5" height="20.5"/>
<polygon class="st18" points="202.4,51.8 204.8,50.3 207.1,51.8 207.1,47.1 202.4,47.1 "/>
<path class="st6" d="M297.5,71.6c0,2.9-2.3,5.2-5.2,5.2l-32.7,0c-2.9,0-5.2-2.3-5.2-5.2c0,0,0,0,0,0l0-35.1c0-2.9,2.3-5.2,5.2-5.2
	c0,0,0,0,0,0l32.7,0c2.9,0,5.2,2.3,5.2,5.2L297.5,71.6z"/>
<polygon class="st6" points="281.6,72.8 276.2,88.4 270.4,72.4 "/>
<rect x="263.2" y="41.9" transform="matrix(1 -1.037567e-03 1.037567e-03 1 -5.689463e-02 0.2867)" class="st19" width="26.2" height="26.2"/>
<polygon class="st9" points="273.8,47.8 276.8,46 279.7,47.8 279.7,41.9 273.8,41.9 "/>
<path class="st9" d="M359.5,237.4l1.3-0.4l-10.3-30.9c-0.6-1.8-2.2-3-4.1-3h-16.1c-1.9,0-3.5,1.2-4.1,3l-10.4,31l1.6,0.2l0.2-0.6
	l9.7-29.4c0.5-1.6,2-2.7,3.8-2.7h14.7c1.7,0,3.2,1.1,3.8,2.7l9.7,29.4L359.5,237.4z"/>
<path class="st7" d="M301,231.4v5.1c0,0.6-0.5,1-1,1h-15.1c-0.6,0-1-0.5-1-1c0-0.4,0.2-0.7,0.5-0.9l11.2-6.2L301,231.4z"/>
<path class="st20" d="M298.3,233.3l2.7-1.9l1.9-5.6L297,224l-1.3,5.4v0l-4.3,2.3l5,1.8C297,233.7,297.7,233.6,298.3,233.3z"/>
<path class="st7" d="M315,231.4v5.1c0,0.6-0.5,1-1,1h-15.1c-0.6,0-1-0.5-1-1c0-0.4,0.2-0.7,0.5-0.9l11.2-6.2L315,231.4z"/>
<path class="st20" d="M305.4,231.7l5,1.8c0.6,0.2,1.3,0.1,1.9-0.2l2.7-1.9l0-6.2l-7.3-1.6l1,5.6"/>
<polyline class="st21" points="310.2,189.6 329.5,189 333.4,187.2 353,186.7 347.7,196.5 345.1,201.4 314.3,203.3 "/>
<polygon class="st13" points="305.9,192.8 295,226.9 302.9,228.3 314.3,203.3 "/>
<path class="st18" d="M353.8,151.8l-8.6,1.1l-5.8,6.5c-1,1.1-1.5,2.5-1.6,4l-0.1,5.6l-4.2,18.1l19,0.5l1.3-1.1l1.1-2.6
	c-0.1-1.3,0-2.7,0.2-4c0.3-1.9,2.9-13.3,4-17.9c0.3-1.2,0-2.4-0.6-3.4L353.8,151.8"/>
<path class="st20" d="M338,139.6l-1.2,4.1l1.4,0.7c0.8,4.9,2.7,5,5.7,4.7l1.1,3l-1.2,5.9l9.9-6.2l-3.1-7.1l-4.5-11.5l-5-2.8
	c-2.2,1.3-3.5,3.8-3.2,7.8L338,139.6z"/>
<path class="st7" d="M356.2,141.4c0.4,5.1-2.8,6.9-5,7.1c-1.8,0.2-3.5-1.3-3.9-5.6c1.5-0.1,1.7-0.6,1.6-1.9l-0.1-1.1l-10.6-5.8
	c0.4-4,4.3-4.9,8-5.2c8-0.7,9.3,3.7,9.8,10.2"/>
<path class="st20" d="M319.3,187.9l0.1,0.4l12.6,0l16.6-6.7c1.1-0.5,2-1.4,2.6-2.5l-6.5-3l-14.6,9l-3.4-0.6c-0.4-0.1-0.7,0-1.1,0.1
	l-5.7,2C319.4,186.9,319.1,187.4,319.3,187.9z"/>
<path class="st21" d="M315.9,189.5l-6.8,0.1c-3.5,0-6.3,2.9-6.2,6.4c0,0.3,0,0.7,0.1,1l5.6,30.9l7.6-1.1v-23.6l11.1-1l-4-10.7
	L315.9,189.5z"/>
<path class="st22" d="M317.1,200.3l-0.9,2.9h34.7c3.9,0,7.2-2.8,7.8-6.6l6.3-39.1l-1.5-0.3c-1.8-0.4-3.5,0.7-4,2.4l-9.9,32.8
	l-29.3,5.3C318.8,198,317.6,199,317.1,200.3z"/>
<path class="st13" d="M331.6,189.7h-26.8c-0.3,0-0.5-0.2-0.5-0.5v-0.9l0,0H332l0,0v0.9C332,189.5,331.8,189.7,331.6,189.7
	L331.6,189.7z"/>
<path class="st13" d="M302.7,187.7l-6.7-24.8c-0.1-0.5,0.2-1.1,0.7-1.3l0.3-0.1l7.2,26.8l-0.3,0.1
	C303.4,188.6,302.9,188.2,302.7,187.7C302.7,187.7,302.7,187.7,302.7,187.7z"/>
<path class="st7" d="M341,139.9c0-0.3-0.3-0.6-0.6-0.5l-0.8,0.1c-0.3,0-0.6,0.3-0.5,0.6"/>
<path class="st7" d="M341.4,149.2c-3.7,4.1-1.2,10.3,0.5,11.9l1,0.9l2.1-9.7l-1.1-3.1C343.1,149.3,342.2,149.3,341.4,149.2z"/>
<path class="st6" d="M305.5,167.5c0,1.1,0.9,2,2,2h12.6c1.1,0,2-0.9,2-2c0,0,0,0,0,0V154c0-1.1-0.9-2-2-2c0,0,0,0,0,0h-12.6
	c-1.1,0-2,0.9-2,2L305.5,167.5z"/>
<polygon class="st6" points="311.7,168 313.8,174 316,167.9 "/>
<rect x="308.7" y="156.1" class="st19" width="10.1" height="10.1"/>
<polygon class="st9" points="314.7,158.4 313.5,157.7 312.4,158.4 312.4,156.1 314.7,156.1 "/>
<rect x="53.5" y="146.8" transform="matrix(1 -1.037567e-03 1.037567e-03 1 -0.1681 7.137892e-02)" class="st17" width="30.4" height="30.4"/>
<polygon class="st18" points="65.8,153.7 69.3,151.6 72.8,153.7 72.8,146.8 65.8,146.8 "/>
<rect x="37.7" y="179.3" transform="matrix(1 -1.037567e-03 1.037567e-03 1 -0.2018 5.501465e-02)" class="st17" width="30.4" height="30.4"/>
<polygon class="st18" points="50.1,186.3 53.5,184.2 57,186.3 57,179.3 50.1,179.4 "/>
<rect x="70.4" y="179.3" transform="matrix(1 -1.037567e-03 1.037567e-03 1 -0.2018 8.893813e-02)" class="st17" width="30.4" height="30.4"/>
<polygon class="st18" points="82.8,186.2 86.2,184.1 89.7,186.2 89.7,179.3 82.7,179.3 "/>
<path class="st23" d="M33.6,157l4.8,41.1L14.6,199c0.5-3.9,1.1-7.9,1.5-11.8c0.7-6.4,2.7-12.1,1.8-18.1c-0.3-2.5-0.8-4.7-0.5-7.2
	c0.1-1,1.7-7.4,3.3-7.1L33.6,157z"/>
<path class="st24" d="M41,144.6c-0.2,0.1-0.3,0.4-0.4,0.6c0,0.2,0,0.4,0,0.7c0,0.4,0.2,0.7,0.6,0.9c-0.3-0.1-0.5-0.1-0.7-0.2
	c-1.5-0.4-3-0.6-4.5-0.6l2.5-3.7l4.9,0.7l0.1,0c0,0-0.1,0-0.1,0.1C42.3,143.6,41.4,144.3,41,144.6z"/>
<path class="st14" d="M51.2,149c-0.6,0.2-1.3,0.4-1.9,0.5c-2.5,0.2-4.1-0.3-6.5-1.7c0,0,0,0-0.1,0c-0.1,0-0.2-0.1-0.3-0.1
	c-0.3-0.2-0.7-0.4-1.1-0.7c-0.2-0.2-0.5-0.3-0.7-0.4l0,0c-0.4-0.2-0.6-0.7-0.5-1.2c0.1-0.3,0.2-0.6,0.2-0.8c0.1-0.3,0.3-0.5,0.6-0.6
	c0.6-0.3,1.8-0.8,3.1-1.3c0,0,0.1,0,0.1-0.1l0.1,0c0.3-0.1,0.5-0.3,0.8-0.4c0,0,0.1,0,0.1-0.1c0.2-0.1,0.4-0.2,0.6-0.3
	c0,0,0.1,0,0.1,0c1.2-0.5,2.2-0.9,2.4-1c0.7-0.3,1.2,0.4,0.9,0.8c0,0,0,0.1-0.1,0.1c-0.2,0.2-1.2,1.7-1.2,1.7
	c-0.1,0.2-0.1,0.5,0.1,0.6c0.1,0.1,0.6,0.6,1.3,1.1c0.5,0.4,1,0.9,1.5,1.4c0,0,0,0,0,0c0.4,0.3,0.8,0.7,1.1,1c0,0,0,0,0,0
	c0.3,0.5,0.1,1.1-0.4,1.4C51.4,148.9,51.3,149,51.2,149z"/>
<path class="st25" d="M23.3,121.4l-2.1,20.1c-0.2,1.5,0.6,2.9,1.8,3.6l20.3,3.5l0-7.7l-14.8-0.6l1.5-7.9L23.3,121.4z"/>
<polygon class="st14" points="24.5,159 26.1,161.8 29.1,160.3 27.6,157.2 "/>
<polygon class="st5" points="21,137.3 23.8,134.3 21,144.1 "/>
<path d="M22.1,223.8v4.6c0,0.5,0.4,0.9,0.9,0.9h14.2c0.5,0,0.9-0.4,0.9-0.9c0-0.3-0.2-0.7-0.5-0.8L27.6,222L22.1,223.8z"/>
<path class="st23" d="M18.5,166l2.3,6l1.3,45.1l6,0l5.6-60.1l-12.9-2.3l-1.9,3.6C17.7,160.8,17.5,163.5,18.5,166z"/>
<path class="st14" d="M35.1,126.6l-4-7l0.2-2.9c0.6-0.1,1.2-0.2,1.8-0.4c1.1-0.4,1.8-1.1,2-2.6c0-0.2,0.1-0.4,0.1-0.7
	c0-0.6,0-1.1-0.1-1.7l1.1-0.9l-2-3.3l-0.2-1.3c-0.2-1.2-0.6-2.4-1.3-3.5c-0.7-1.2-1.9-2.2-3.3-2.5l-3.7,3.6l-0.7,6.4l0,0.2l-0.5,4.4
	l-0.7,4.7v0l0,0l-0.3,2.1L35.1,126.6z"/>
<path class="st7" d="M33,108.8l-0.4,0.1c-0.2,0-0.3-0.1-0.3-0.2c0,0,0,0,0,0l-0.1-0.4c0-0.2,0.1-0.3,0.2-0.3l0.4-0.1
	c0.2,0,0.3,0.1,0.3,0.2l0.1,0.4C33.2,108.6,33.1,108.8,33,108.8z"/>
<path class="st26" d="M24.6,99.7c3.3-0.6,6.9-0.7,8.2,2.7l-7.8,7.5l0.2,1c0.2,1.2,0.2,1.9,1.5,1.7c0.2,3.3-0.7,4.9-2.8,6.6
	c-2-0.9-4.5-3.2-5.1-7l-0.2-1.4C17.5,105,17.5,101,24.6,99.7z"/>
<path class="st23" d="M21.1,135.3l-0.3,19.5l12.9,2.3l1.6-17.4l1.9-2.5c1.3-1.8,1.5-4.1,0.4-6.1l-2.5-4.5l-11.6-5.3L21.1,135.3z"/>
<path class="st23" d="M23.5,121.4l-11.9,16.4c-0.9,1.2-1,2.8-0.2,4l11.1,19.3l7.8-4.2l-11.6-16.5l5.2-6.1L23.5,121.4z"/>
<path class="st14" d="M23.8,160.3l2.2,3.8l1-0.6c1.8-1,2.4-3.3,1.4-5L28,158L23.8,160.3z"/>
<path class="st14" d="M24.5,225.5l-2.5-1.7v-6.6h6.1l-0.5,4.8v0l3.9,2.1l-5.3,1.6C25.6,225.9,25,225.8,24.5,225.5z"/>
<polygon class="st9" points="21,137.5 23.8,134.3 21.2,144.3 "/>
<path class="st27" d="M31.4,116.7c0,0-3.2,0.3-8.4-2.7c0,0,2.2,7.5,3.7,8.9l8.4,3.7l-4-7L31.4,116.7z"/>
<path class="st27" d="M27.1,114c0.3-0.5,0.5-0.9,0.2-1.7c-0.2-0.5-0.8-0.9-0.9-1.4c0-0.2,0-0.3,0.1-0.5c0.4-1.7,0.8-3.4,1.3-5
	c0.6-1.9,2.3-3.6,3.5-5.2c0,0-4.2-2.6-10.2,0.2c0,0-7.5,3.4-3.4,14.3c0,0,1,9.5,2.7,11.1l3.6-4.3c0.4-0.2,3,2.1,2.5,0.4
	c-0.3-0.8,0-6.6,0.4-7.4C26.9,114.4,27,114.2,27.1,114z"/>
<path class="st26" d="M22.2,103.5c0,0,0,2.6,1.6,4.4C23.8,107.9,21.7,106.2,22.2,103.5z"/>
<path class="st26" d="M20.6,106.6c0,0,2,4.3,6.3,6.2C26.9,112.8,22.3,112,20.6,106.6z"/>
<path class="st26" d="M17.8,110.6c0,0,2.8,2.6,6.3,2.7C24.1,113.3,20.5,114.5,17.8,110.6z"/>
<path class="st26" d="M26.7,117.7c1,0.7,2.2,1.1,3.4,1.1C28.9,119.1,27.6,118.6,26.7,117.7z"/>
<path class="st26" d="M26.6,120.1c1,0.7,2.2,1.1,3.4,1.1C28.7,121.5,27.4,121.1,26.6,120.1z"/>
<path class="st26" d="M20.3,119.6c0,0,2.6-3.5,4.2-3.7C24.5,115.9,21.6,116.3,20.3,119.6z"/>
<polygon points="30,198.4 28.1,217.2 22.1,217.2 21.5,198.6 "/>
<path class="st6" d="M35.3,112.9l-1.7,0.1c0,0,0.2,0.8,1.7,0.8L35.3,112.9z"/>
<path class="st13" d="M44.7,153.8l-0.4-0.3c-0.4-0.4-0.5-1-0.2-1.5l7.4-9.2c0.4-0.4,1-0.5,1.5-0.2l0.4,0.3c0.4,0.4,0.5,1,0.2,1.5
	l-7.4,9.2C45.8,154.1,45.1,154.2,44.7,153.8z"/>
</svg>
