<svg viewBox="0 0 348.03 163.28" xmlns="http://www.w3.org/2000/svg"><path d="m0 0h348.03v163.28h-348.03z" fill="none"/><path d="m126.08 93.63v-23.98h6.38l8.09 17.92 7.96-17.92h6.11v23.98h-5.26v-13.95l-6.07 13.95h-5.6l-6.15-13.87v13.87z"/><path d="m163.16 93.63h-6.16l10.64-24h7.61l10.71 24h-6.1l-2.11-4.78h-12.55zm12.63-9.28-4.4-10.17-4.3 10.17z"/><path d="m188.4 93.63v-23.98h22.89v4.8h-17.36v4.76h14.89v4.68h-14.89v4.94h17.4v4.8z"/><path d="m215.79 93.63v-24h19.15a3.69 3.69 0 0 1 4.05 4v8.06c0 1.85-1.64 3.53-4.82 3.53h-.56l5.58 8.37h-6.19l-5.29-8.2h-6.36v8.2zm5.6-13h12v-6.18h-12v6.21z"/><path d="m249.08 93.64h-1.9c-2.48 0-3.67-1.43-3.67-3.51v-3.13h5.57v1.86h11.83v-4.92h-13.58a3.48 3.48 0 0 1 -3.72-3.48v-7.12a3.65 3.65 0 0 1 3.76-3.67h15.52a3.52 3.52 0 0 1 3.55 3.83v2.86h-5.53v-1.9h-11.83v4.72h13.53a3.68 3.68 0 0 1 3.83 3.87v6.84a3.39 3.39 0 0 1 -3.71 3.75z"/><path d="m271.78 93.64v-23.97h5.68v9.59l10.83-9.59h7.7l-12.92 11.13 13.38 12.84h-7.96l-11.03-10.9v10.9z"/><path d="m57.78 54.43h39.16a6.21 6.21 0 0 1 6.21 6.21v42a6.21 6.21 0 0 1 -6.21 6.21h-39.16a6.2 6.2 0 0 1 -6.2-6.2v-42a6.2 6.2 0 0 1 6.2-6.22z" fill="#42b0d5"/><path d="m85.58 80.23 10.18-12.77-.03-.04-14.71 7.09-3.63-15.92h-.06l-3.63 15.92-14.71-7.09-.03.04 10.18 12.77-14.71 7.08.01.05h16.33l-3.63 15.92.04.02 10.18-12.77 10.18 12.77.04-.02-3.63-15.92h16.33l.01-.05z" fill="#fff"/></svg>